<?xml version="1.0" standalone="no"?>
<!DOCTYPE svg PUBLIC "-//W3C//DTD SVG 1.1//EN" "http://www.w3.org/Graphics/SVG/1.1/DTD/svg11.dtd" >
<svg xmlns="http://www.w3.org/2000/svg" xmlns:xlink="http://www.w3.org/1999/xlink" version="1.1" viewBox="-30 -210 2570 2248">
  <g transform="matrix(1 0 0 -1 0 1638)">
   <path fill="currentColor"
d="M929 457q175 0 320 85q144 85 229 232q85 145 85 316q0 173 -86 319q-43 74 -102 132.5t-129.5 99.5t-150.5 62.5t-166 21.5q-174 0 -319 -85q-146 -85 -230 -230q-86 -144 -86 -320q0 -262 184 -447q186 -186 451 -186zM2375 -75q0 -91 -95 -186q-92 -93 -186 -93
q-45 0 -71 26l-424 424q-26 26 -26 71q0 23 7 49t22 52l-186 185q-215 -164 -489 -164q-218 0 -402 106q-183 106 -291 290q-55 93 -81.5 194t-26.5 211q0 156 57.5 302t177.5 266q119 120 263 177.5t305 57.5q110 1 210 -26t192 -80q91 -54 164 -126t127 -166
q110 -187 110 -402q0 -271 -166 -488l185 -185q48 26 100 26q48 0 73 -26l425 -424q26 -28 26 -71z" />
  </g>

</svg>
