<?xml version="1.0" encoding="UTF-8" standalone="no"?><svg xmlns="http://www.w3.org/2000/svg" xmlns:xlink="http://www.w3.org/1999/xlink" contentScriptType="application/ecmascript" contentStyleType="text/css" height="575px" preserveAspectRatio="none" style="width:790px;height:575px;" version="1.1" viewBox="0 0 790 575" width="790px" zoomAndPan="magnify"><defs><filter height="300%" id="ffi3r1314v2qi" width="300%" x="-1" y="-1"><feGaussianBlur result="blurOut" stdDeviation="2.0"/><feColorMatrix in="blurOut" result="blurOut2" type="matrix" values="0 0 0 0 0 0 0 0 0 0 0 0 0 0 0 0 0 0 .4 0"/><feOffset dx="4.0" dy="4.0" in="blurOut2" result="blurOut3"/><feBlend in="SourceGraphic" in2="blurOut3" mode="normal"/></filter></defs><g><rect fill="#F5F5F5" height="560.5234" style="stroke: #A80036; stroke-width: 1.0;" width="452.5" x="14" y="4"/><text fill="#000000" font-family="sans-serif" font-size="13" font-weight="bold" lengthAdjust="spacingAndGlyphs" textLength="60" x="210.25" y="16.0669">Browser</text><line style="stroke: #000000; stroke-width: 1.0; stroke-dasharray: 5.0,5.0;" x1="100" x2="100" y1="70.0703" y2="514.5859"/><line style="stroke: #000000; stroke-width: 1.0; stroke-dasharray: 5.0,5.0;" x1="375.5" x2="375.5" y1="70.0703" y2="514.5859"/><line style="stroke: #000000; stroke-width: 1.0; stroke-dasharray: 5.0,5.0;" x1="627.5" x2="627.5" y1="70.0703" y2="514.5859"/><rect fill="#FFC6DB" filter="url(#ffi3r1314v2qi)" height="41.9375" style="stroke: #000000; stroke-width: 1.5;" width="120" x="38" y="23.1328"/><text fill="#000000" font-family="sans-serif" font-size="24" lengthAdjust="spacingAndGlyphs" textLength="106" x="45" y="52.4102">SearchUI</text><rect fill="#FFC6DB" filter="url(#ffi3r1314v2qi)" height="41.9375" style="stroke: #000000; stroke-width: 1.5;" width="120" x="38" y="513.5859"/><text fill="#000000" font-family="sans-serif" font-size="24" lengthAdjust="spacingAndGlyphs" textLength="106" x="45" y="542.8633">SearchUI</text><rect fill="#FFC6DB" filter="url(#ffi3r1314v2qi)" height="41.9375" style="stroke: #000000; stroke-width: 1.5;" width="129" x="309.5" y="23.1328"/><text fill="#000000" font-family="sans-serif" font-size="24" lengthAdjust="spacingAndGlyphs" textLength="115" x="316.5" y="52.4102">ProductUI</text><rect fill="#FFC6DB" filter="url(#ffi3r1314v2qi)" height="41.9375" style="stroke: #000000; stroke-width: 1.5;" width="129" x="309.5" y="513.5859"/><text fill="#000000" font-family="sans-serif" font-size="24" lengthAdjust="spacingAndGlyphs" textLength="115" x="316.5" y="542.8633">ProductUI</text><rect fill="#FFC6DB" filter="url(#ffi3r1314v2qi)" height="41.9375" style="stroke: #000000; stroke-width: 1.5;" width="247" x="502.5" y="23.1328"/><text fill="#000000" font-family="sans-serif" font-size="24" lengthAdjust="spacingAndGlyphs" textLength="233" x="509.5" y="52.4102">ProductDataService</text><rect fill="#FFC6DB" filter="url(#ffi3r1314v2qi)" height="41.9375" style="stroke: #000000; stroke-width: 1.5;" width="247" x="502.5" y="513.5859"/><text fill="#000000" font-family="sans-serif" font-size="24" lengthAdjust="spacingAndGlyphs" textLength="233" x="509.5" y="542.8633">ProductDataService</text><rect fill="#EEEEEE" filter="url(#ffi3r1314v2qi)" height="3" style="stroke: #EEEEEE; stroke-width: 1.0;" width="775.5" x="3" y="100.6367"/><line style="stroke: #000000; stroke-width: 1.0;" x1="3" x2="778.5" y1="100.6367" y2="100.6367"/><line style="stroke: #000000; stroke-width: 1.0;" x1="3" x2="778.5" y1="103.6367" y2="103.6367"/><rect fill="#EEEEEE" filter="url(#ffi3r1314v2qi)" height="23.1328" style="stroke: #000000; stroke-width: 2.0;" width="108" x="336.75" y="90.0703"/><text fill="#000000" font-family="sans-serif" font-size="13" font-weight="bold" lengthAdjust="spacingAndGlyphs" textLength="89" x="342.75" y="106.1372">initialization</text><polygon fill="#000000" points="111,148.4844,101,152.4844,111,156.4844,107,152.4844" style="stroke: #000000; stroke-width: 1.0;"/><line style="stroke: #000000; stroke-width: 1.0;" x1="105" x2="375" y1="152.4844" y2="152.4844"/><text fill="#000000" font-family="sans-serif" font-size="20" lengthAdjust="spacingAndGlyphs" textLength="228" x="117" y="145.7676">registerSearchProvider</text><rect fill="#EEEEEE" filter="url(#ffi3r1314v2qi)" height="3" style="stroke: #EEEEEE; stroke-width: 1.0;" width="775.5" x="3" y="181.0508"/><line style="stroke: #000000; stroke-width: 1.0;" x1="3" x2="778.5" y1="181.0508" y2="181.0508"/><line style="stroke: #000000; stroke-width: 1.0;" x1="3" x2="778.5" y1="184.0508" y2="184.0508"/><rect fill="#EEEEEE" filter="url(#ffi3r1314v2qi)" height="23.1328" style="stroke: #000000; stroke-width: 2.0;" width="135" x="323.25" y="170.4844"/><text fill="#000000" font-family="sans-serif" font-size="13" font-weight="bold" lengthAdjust="spacingAndGlyphs" textLength="116" x="329.25" y="186.5513">user interaction</text><line style="stroke: #000000; stroke-width: 1.0;" x1="100" x2="142" y1="232.8984" y2="232.8984"/><line style="stroke: #000000; stroke-width: 1.0;" x1="142" x2="142" y1="232.8984" y2="245.8984"/><line style="stroke: #000000; stroke-width: 1.0;" x1="101" x2="142" y1="245.8984" y2="245.8984"/><polygon fill="#000000" points="111,241.8984,101,245.8984,111,249.8984,107,245.8984" style="stroke: #000000; stroke-width: 1.0;"/><text fill="#000000" font-family="sans-serif" font-size="20" lengthAdjust="spacingAndGlyphs" textLength="194" x="107" y="226.1816">getSearchProviders</text><polygon fill="#000000" points="364,279.1797,374,283.1797,364,287.1797,368,283.1797" style="stroke: #000000; stroke-width: 1.0;"/><line style="stroke: #000000; stroke-width: 1.0; stroke-dasharray: 2.0,2.0;" x1="100" x2="370" y1="283.1797" y2="283.1797"/><text fill="#000000" font-family="sans-serif" font-size="20" lengthAdjust="spacingAndGlyphs" textLength="244" x="107" y="276.4629">execute_search callback</text><polygon fill="#000000" points="616,316.4609,626,320.4609,616,324.4609,620,320.4609" style="stroke: #000000; stroke-width: 1.0;"/><line style="stroke: #000000; stroke-width: 1.0;" x1="376" x2="622" y1="320.4609" y2="320.4609"/><text fill="#000000" font-family="sans-serif" font-size="20" lengthAdjust="spacingAndGlyphs" textLength="98" x="383" y="313.7441">HTTP GET</text><polygon fill="#000000" points="387,353.7422,377,357.7422,387,361.7422,383,357.7422" style="stroke: #000000; stroke-width: 1.0;"/><line style="stroke: #000000; stroke-width: 1.0; stroke-dasharray: 2.0,2.0;" x1="381" x2="627" y1="357.7422" y2="357.7422"/><text fill="#000000" font-family="sans-serif" font-size="20" lengthAdjust="spacingAndGlyphs" textLength="146" x="393" y="351.0254">JSON response</text><polygon fill="#000000" points="111,367.7422,101,371.7422,111,375.7422,107,371.7422" style="stroke: #000000; stroke-width: 1.0;"/><line style="stroke: #000000; stroke-width: 1.0; stroke-dasharray: 2.0,2.0;" x1="105" x2="375" y1="371.7422" y2="371.7422"/><line style="stroke: #000000; stroke-width: 1.0;" x1="100" x2="142" y1="409.0234" y2="409.0234"/><line style="stroke: #000000; stroke-width: 1.0;" x1="142" x2="142" y1="409.0234" y2="422.0234"/><line style="stroke: #000000; stroke-width: 1.0;" x1="101" x2="142" y1="422.0234" y2="422.0234"/><polygon fill="#000000" points="111,418.0234,101,422.0234,111,426.0234,107,422.0234" style="stroke: #000000; stroke-width: 1.0;"/><text fill="#000000" font-family="sans-serif" font-size="20" lengthAdjust="spacingAndGlyphs" textLength="239" x="107" y="402.3066">render SearchContainer</text><polygon fill="#000000" points="364,455.3047,374,459.3047,364,463.3047,368,459.3047" style="stroke: #000000; stroke-width: 1.0;"/><line style="stroke: #000000; stroke-width: 1.0;" x1="100" x2="370" y1="459.3047" y2="459.3047"/><text fill="#000000" font-family="sans-serif" font-size="20" lengthAdjust="spacingAndGlyphs" textLength="226" x="107" y="452.5879">render TabComponent</text><polygon fill="#000000" points="364,492.5859,374,496.5859,364,500.5859,368,496.5859" style="stroke: #000000; stroke-width: 1.0;"/><line style="stroke: #000000; stroke-width: 1.0;" x1="100" x2="370" y1="496.5859" y2="496.5859"/><text fill="#000000" font-family="sans-serif" font-size="20" lengthAdjust="spacingAndGlyphs" textLength="252" x="107" y="489.8691">render ResultComponent</text><!--
@startuml
skinparam BoxPadding 10
skinparam ParticipantPadding 20

skinparam sequence {
	ArrowColor black
	ActorBorderColor black
	LifeLineBorderColor black
	LifeLineBackgroundColor black
	ArrowFontSize 20

	ParticipantBorderColor black
    ParticipantBackgroundColor #FFC6DB
    ParticipantFontSize 24

	ActorBackgroundColor #FFC6DB
	ActorFontSize 20
}

box "Browser" #F5F5F5
	participant SearchUI
	participant ProductUI
end box

== initialization ==

SearchUI <- ProductUI: registerSearchProvider

== user interaction ==

SearchUI -> SearchUI: getSearchProviders
SearchUI - -> ProductUI: execute_search callback
ProductUI -> ProductDataService: HTTP GET
ProductUI <- - ProductDataService: JSON response
SearchUI <- - ProductUI
SearchUI -> SearchUI: render SearchContainer
SearchUI -> ProductUI: render TabComponent
SearchUI -> ProductUI: render ResultComponent
@enduml

PlantUML version 1.2019.05(Sat Apr 20 16:45:36 UTC 2019)
(GPL source distribution)
Java Runtime: Java(TM) SE Runtime Environment
JVM: Java HotSpot(TM) 64-Bit Server VM
Java Version: 1.7.0_25-b15
Operating System: Linux
Default Encoding: UTF-8
Language: en
Country: US
--></g></svg>