<?xml version="1.0" encoding="UTF-8" standalone="no"?><svg xmlns="http://www.w3.org/2000/svg" xmlns:xlink="http://www.w3.org/1999/xlink" contentScriptType="application/ecmascript" contentStyleType="text/css" height="858px" preserveAspectRatio="none" style="width:1376px;height:858px;" version="1.1" viewBox="0 0 1376 858" width="1376px" zoomAndPan="magnify"><defs><filter height="300%" id="f1heuhah58iicn" width="300%" x="-1" y="-1"><feGaussianBlur result="blurOut" stdDeviation="2.0"/><feColorMatrix in="blurOut" result="blurOut2" type="matrix" values="0 0 0 0 0 0 0 0 0 0 0 0 0 0 0 0 0 0 .4 0"/><feOffset dx="4.0" dy="4.0" in="blurOut2" result="blurOut3"/><feBlend in="SourceGraphic" in2="blurOut3" mode="normal"/></filter></defs><g><rect fill="#F5F5F5" height="843.2109" style="stroke: #A80036; stroke-width: 1.0;" width="734.5" x="315" y="4"/><text fill="#000000" font-family="sans-serif" font-size="13" font-weight="bold" lengthAdjust="spacingAndGlyphs" textLength="60" x="652.25" y="16.0669">Browser</text><line style="stroke: #000000; stroke-width: 1.0; stroke-dasharray: 5.0,5.0;" x1="153" x2="153" y1="70.0703" y2="797.2734"/><line style="stroke: #000000; stroke-width: 1.0; stroke-dasharray: 5.0,5.0;" x1="405" x2="405" y1="70.0703" y2="797.2734"/><line style="stroke: #000000; stroke-width: 1.0; stroke-dasharray: 5.0,5.0;" x1="681.5" x2="681.5" y1="70.0703" y2="797.2734"/><line style="stroke: #000000; stroke-width: 1.0; stroke-dasharray: 5.0,5.0;" x1="957.5" x2="957.5" y1="70.0703" y2="797.2734"/><line style="stroke: #000000; stroke-width: 1.0; stroke-dasharray: 5.0,5.0;" x1="1212.5" x2="1212.5" y1="70.0703" y2="797.2734"/><rect fill="#F5F5F5" filter="url(#f1heuhah58iicn)" height="41.9375" style="stroke: #000000; stroke-width: 1.5;" width="247" x="28" y="23.1328"/><text fill="#000000" font-family="sans-serif" font-size="24" lengthAdjust="spacingAndGlyphs" textLength="233" x="35" y="52.4102">ProductDataService</text><rect fill="#F5F5F5" filter="url(#f1heuhah58iicn)" height="41.9375" style="stroke: #000000; stroke-width: 1.5;" width="247" x="28" y="796.2734"/><text fill="#000000" font-family="sans-serif" font-size="24" lengthAdjust="spacingAndGlyphs" textLength="233" x="35" y="825.5508">ProductDataService</text><rect fill="#F5F5F5" filter="url(#f1heuhah58iicn)" height="41.9375" style="stroke: #000000; stroke-width: 1.5;" width="129" x="339" y="23.1328"/><text fill="#000000" font-family="sans-serif" font-size="24" lengthAdjust="spacingAndGlyphs" textLength="115" x="346" y="52.4102">ProductUI</text><rect fill="#F5F5F5" filter="url(#f1heuhah58iicn)" height="41.9375" style="stroke: #000000; stroke-width: 1.5;" width="129" x="339" y="796.2734"/><text fill="#000000" font-family="sans-serif" font-size="24" lengthAdjust="spacingAndGlyphs" textLength="115" x="346" y="825.5508">ProductUI</text><rect fill="#FFC6DB" filter="url(#f1heuhah58iicn)" height="41.9375" style="stroke: #000000; stroke-width: 1.5;" width="120" x="619.5" y="23.1328"/><text fill="#000000" font-family="sans-serif" font-size="24" lengthAdjust="spacingAndGlyphs" textLength="106" x="626.5" y="52.4102">SearchUI</text><rect fill="#FFC6DB" filter="url(#f1heuhah58iicn)" height="41.9375" style="stroke: #000000; stroke-width: 1.5;" width="120" x="619.5" y="796.2734"/><text fill="#000000" font-family="sans-serif" font-size="24" lengthAdjust="spacingAndGlyphs" textLength="106" x="626.5" y="825.5508">SearchUI</text><rect fill="#FFC6DB" filter="url(#f1heuhah58iicn)" height="41.9375" style="stroke: #000000; stroke-width: 1.5;" width="132" x="889.5" y="23.1328"/><text fill="#000000" font-family="sans-serif" font-size="24" lengthAdjust="spacingAndGlyphs" textLength="118" x="896.5" y="52.4102">ContentUI</text><rect fill="#FFC6DB" filter="url(#f1heuhah58iicn)" height="41.9375" style="stroke: #000000; stroke-width: 1.5;" width="132" x="889.5" y="796.2734"/><text fill="#000000" font-family="sans-serif" font-size="24" lengthAdjust="spacingAndGlyphs" textLength="118" x="896.5" y="825.5508">ContentUI</text><rect fill="#FFC6DB" filter="url(#f1heuhah58iicn)" height="41.9375" style="stroke: #000000; stroke-width: 1.5;" width="250" x="1085.5" y="23.1328"/><text fill="#000000" font-family="sans-serif" font-size="24" lengthAdjust="spacingAndGlyphs" textLength="236" x="1092.5" y="52.4102">ContentDataService</text><rect fill="#FFC6DB" filter="url(#f1heuhah58iicn)" height="41.9375" style="stroke: #000000; stroke-width: 1.5;" width="250" x="1085.5" y="796.2734"/><text fill="#000000" font-family="sans-serif" font-size="24" lengthAdjust="spacingAndGlyphs" textLength="236" x="1092.5" y="825.5508">ContentDataService</text><rect fill="#EEEEEE" filter="url(#f1heuhah58iicn)" height="3" style="stroke: #EEEEEE; stroke-width: 1.0;" width="1361.5" x="3" y="100.6367"/><line style="stroke: #000000; stroke-width: 1.0;" x1="3" x2="1364.5" y1="100.6367" y2="100.6367"/><line style="stroke: #000000; stroke-width: 1.0;" x1="3" x2="1364.5" y1="103.6367" y2="103.6367"/><rect fill="#EEEEEE" filter="url(#f1heuhah58iicn)" height="23.1328" style="stroke: #000000; stroke-width: 2.0;" width="108" x="629.75" y="90.0703"/><text fill="#000000" font-family="sans-serif" font-size="13" font-weight="bold" lengthAdjust="spacingAndGlyphs" textLength="89" x="635.75" y="106.1372">Initialization</text><polygon fill="#BDBDBD" points="669.5,148.4844,679.5,152.4844,669.5,156.4844,673.5,152.4844" style="stroke: #BDBDBD; stroke-width: 1.0;"/><line style="stroke: #BDBDBD; stroke-width: 1.0;" x1="405.5" x2="675.5" y1="152.4844" y2="152.4844"/><text fill="#808080" font-family="sans-serif" font-size="20" lengthAdjust="spacingAndGlyphs" textLength="228" x="412.5" y="145.7676">registerSearchProvider</text><polygon fill="#000000" points="692.5,185.7656,682.5,189.7656,692.5,193.7656,688.5,189.7656" style="stroke: #000000; stroke-width: 1.0;"/><line style="stroke: #000000; stroke-width: 1.0;" x1="686.5" x2="956.5" y1="189.7656" y2="189.7656"/><text fill="#000000" font-family="sans-serif" font-size="20" lengthAdjust="spacingAndGlyphs" textLength="228" x="698.5" y="183.0488">registerSearchProvider</text><rect fill="#EEEEEE" filter="url(#f1heuhah58iicn)" height="3" style="stroke: #EEEEEE; stroke-width: 1.0;" width="1361.5" x="3" y="263.332"/><line style="stroke: #000000; stroke-width: 1.0;" x1="3" x2="1364.5" y1="263.332" y2="263.332"/><line style="stroke: #000000; stroke-width: 1.0;" x1="3" x2="1364.5" y1="266.332" y2="266.332"/><rect fill="#EEEEEE" filter="url(#f1heuhah58iicn)" height="23.1328" style="stroke: #000000; stroke-width: 2.0;" width="135" x="616.25" y="252.7656"/><text fill="#000000" font-family="sans-serif" font-size="13" font-weight="bold" lengthAdjust="spacingAndGlyphs" textLength="116" x="622.25" y="268.8325">user interaction</text><line style="stroke: #000000; stroke-width: 1.0;" x1="681.5" x2="723.5" y1="315.1797" y2="315.1797"/><line style="stroke: #000000; stroke-width: 1.0;" x1="723.5" x2="723.5" y1="315.1797" y2="328.1797"/><line style="stroke: #000000; stroke-width: 1.0;" x1="682.5" x2="723.5" y1="328.1797" y2="328.1797"/><polygon fill="#000000" points="692.5,324.1797,682.5,328.1797,692.5,332.1797,688.5,328.1797" style="stroke: #000000; stroke-width: 1.0;"/><text fill="#000000" font-family="sans-serif" font-size="20" lengthAdjust="spacingAndGlyphs" textLength="194" x="688.5" y="308.4629">getSearchProviders</text><polygon fill="#BDBDBD" points="416.5,361.4609,406.5,365.4609,416.5,369.4609,412.5,365.4609" style="stroke: #BDBDBD; stroke-width: 1.0;"/><line style="stroke: #BDBDBD; stroke-width: 1.0; stroke-dasharray: 2.0,2.0;" x1="410.5" x2="680.5" y1="365.4609" y2="365.4609"/><text fill="#808080" font-family="sans-serif" font-size="20" lengthAdjust="spacingAndGlyphs" textLength="244" x="422.5" y="358.7441">execute_search callback</text><polygon fill="#BDBDBD" points="164.5,398.7422,154.5,402.7422,164.5,406.7422,160.5,402.7422" style="stroke: #BDBDBD; stroke-width: 1.0;"/><line style="stroke: #BDBDBD; stroke-width: 1.0;" x1="158.5" x2="404.5" y1="402.7422" y2="402.7422"/><text fill="#808080" font-family="sans-serif" font-size="20" lengthAdjust="spacingAndGlyphs" textLength="98" x="170.5" y="396.0254">HTTP GET</text><polygon fill="#BDBDBD" points="393.5,436.0234,403.5,440.0234,393.5,444.0234,397.5,440.0234" style="stroke: #BDBDBD; stroke-width: 1.0;"/><line style="stroke: #BDBDBD; stroke-width: 1.0; stroke-dasharray: 2.0,2.0;" x1="153.5" x2="399.5" y1="440.0234" y2="440.0234"/><text fill="#808080" font-family="sans-serif" font-size="20" lengthAdjust="spacingAndGlyphs" textLength="146" x="160.5" y="433.3066">JSON response</text><polygon fill="#BDBDBD" points="669.5,450.0234,679.5,454.0234,669.5,458.0234,673.5,454.0234" style="stroke: #BDBDBD; stroke-width: 1.0;"/><line style="stroke: #BDBDBD; stroke-width: 1.0; stroke-dasharray: 2.0,2.0;" x1="405.5" x2="675.5" y1="454.0234" y2="454.0234"/><polygon fill="#000000" points="945.5,487.3047,955.5,491.3047,945.5,495.3047,949.5,491.3047" style="stroke: #000000; stroke-width: 1.0;"/><line style="stroke: #000000; stroke-width: 1.0; stroke-dasharray: 2.0,2.0;" x1="681.5" x2="951.5" y1="491.3047" y2="491.3047"/><text fill="#000000" font-family="sans-serif" font-size="20" lengthAdjust="spacingAndGlyphs" textLength="244" x="688.5" y="484.5879">execute_search callback</text><polygon fill="#000000" points="1200.5,524.5859,1210.5,528.5859,1200.5,532.5859,1204.5,528.5859" style="stroke: #000000; stroke-width: 1.0;"/><line style="stroke: #000000; stroke-width: 1.0;" x1="957.5" x2="1206.5" y1="528.5859" y2="528.5859"/><text fill="#000000" font-family="sans-serif" font-size="20" lengthAdjust="spacingAndGlyphs" textLength="98" x="964.5" y="521.8691">HTTP GET</text><polygon fill="#000000" points="968.5,561.8672,958.5,565.8672,968.5,569.8672,964.5,565.8672" style="stroke: #000000; stroke-width: 1.0;"/><line style="stroke: #000000; stroke-width: 1.0; stroke-dasharray: 2.0,2.0;" x1="962.5" x2="1211.5" y1="565.8672" y2="565.8672"/><text fill="#000000" font-family="sans-serif" font-size="20" lengthAdjust="spacingAndGlyphs" textLength="146" x="974.5" y="559.1504">JSON response</text><polygon fill="#000000" points="692.5,575.8672,682.5,579.8672,692.5,583.8672,688.5,579.8672" style="stroke: #000000; stroke-width: 1.0;"/><line style="stroke: #000000; stroke-width: 1.0; stroke-dasharray: 2.0,2.0;" x1="686.5" x2="956.5" y1="579.8672" y2="579.8672"/><line style="stroke: #000000; stroke-width: 1.0;" x1="681.5" x2="723.5" y1="617.1484" y2="617.1484"/><line style="stroke: #000000; stroke-width: 1.0;" x1="723.5" x2="723.5" y1="617.1484" y2="630.1484"/><line style="stroke: #000000; stroke-width: 1.0;" x1="682.5" x2="723.5" y1="630.1484" y2="630.1484"/><polygon fill="#000000" points="692.5,626.1484,682.5,630.1484,692.5,634.1484,688.5,630.1484" style="stroke: #000000; stroke-width: 1.0;"/><text fill="#000000" font-family="sans-serif" font-size="20" lengthAdjust="spacingAndGlyphs" textLength="239" x="688.5" y="610.4316">render SearchContainer</text><polygon fill="#BDBDBD" points="416.5,663.4297,406.5,667.4297,416.5,671.4297,412.5,667.4297" style="stroke: #BDBDBD; stroke-width: 1.0;"/><line style="stroke: #BDBDBD; stroke-width: 1.0;" x1="410.5" x2="680.5" y1="667.4297" y2="667.4297"/><text fill="#808080" font-family="sans-serif" font-size="20" lengthAdjust="spacingAndGlyphs" textLength="226" x="422.5" y="660.7129">render TabComponent</text><polygon fill="#BDBDBD" points="416.5,700.7109,406.5,704.7109,416.5,708.7109,412.5,704.7109" style="stroke: #BDBDBD; stroke-width: 1.0;"/><line style="stroke: #BDBDBD; stroke-width: 1.0;" x1="410.5" x2="680.5" y1="704.7109" y2="704.7109"/><text fill="#808080" font-family="sans-serif" font-size="20" lengthAdjust="spacingAndGlyphs" textLength="252" x="422.5" y="697.9941">render ResultComponent</text><polygon fill="#000000" points="945.5,737.9922,955.5,741.9922,945.5,745.9922,949.5,741.9922" style="stroke: #000000; stroke-width: 1.0;"/><line style="stroke: #000000; stroke-width: 1.0;" x1="681.5" x2="951.5" y1="741.9922" y2="741.9922"/><text fill="#000000" font-family="sans-serif" font-size="20" lengthAdjust="spacingAndGlyphs" textLength="226" x="688.5" y="735.2754">render TabComponent</text><polygon fill="#000000" points="945.5,775.2734,955.5,779.2734,945.5,783.2734,949.5,779.2734" style="stroke: #000000; stroke-width: 1.0;"/><line style="stroke: #000000; stroke-width: 1.0;" x1="681.5" x2="951.5" y1="779.2734" y2="779.2734"/><text fill="#000000" font-family="sans-serif" font-size="20" lengthAdjust="spacingAndGlyphs" textLength="252" x="688.5" y="772.5566">render ResultComponent</text><!--
@startuml
skinparam BoxPadding 10
skinparam ParticipantPadding 20
participant ProductUI #F5F5F5
participant ProductDataService #F5F5F5

participant ContentDataService order 50
participant ProductDataService order 30
participant ContentUI order 40
participant ProductUI order 20
participant SearchUI order 10

skinparam sequence {
	ArrowColor black
	ActorBorderColor black
	LifeLineBorderColor black
	LifeLineBackgroundColor black
	ArrowFontSize 20

	ParticipantBorderColor black
    ParticipantBackgroundColor #FFC6DB
    ParticipantFontSize 24

	ActorBackgroundColor #FFC6DB
	ActorFontSize 20
}

box "Browser" #F5F5F5
	participant SearchUI
	participant ProductUI
	participant ContentUI
end box

== Initialization ==

SearchUI <-[#BDBDBD] ProductUI: <font color="grey">registerSearchProvider
SearchUI <- ContentUI: registerSearchProvider
||45||
== user interaction ==

SearchUI -> SearchUI: getSearchProviders
SearchUI -[#BDBDBD]-> ProductUI: <font color="grey">execute_search callback
ProductUI [#BDBDBD]-> ProductDataService: <font color="grey">HTTP GET
ProductUI <-[#BDBDBD]- ProductDataService: <font color="grey">JSON response
SearchUI <-[#BDBDBD]- ProductUI
SearchUI - -> ContentUI: execute_search callback
ContentUI -> ContentDataService: HTTP GET
ContentUI <- - ContentDataService: JSON response
SearchUI <- - ContentUI
SearchUI -> SearchUI: render SearchContainer
SearchUI [#BDBDBD]-> ProductUI: <font color="grey">render TabComponent
SearchUI [#BDBDBD]-> ProductUI: <font color="grey">render ResultComponent
SearchUI -> ContentUI: render TabComponent
SearchUI -> ContentUI: render ResultComponent
@enduml

PlantUML version 1.2019.05(Sat Apr 20 16:45:36 UTC 2019)
(GPL source distribution)
Java Runtime: Java(TM) SE Runtime Environment
JVM: Java HotSpot(TM) 64-Bit Server VM
Java Version: 1.7.0_25-b15
Operating System: Linux
Default Encoding: UTF-8
Language: en
Country: US
--></g></svg>