<?xml version="1.0" encoding="UTF-8" standalone="no"?><svg xmlns="http://www.w3.org/2000/svg" xmlns:xlink="http://www.w3.org/1999/xlink" contentScriptType="application/ecmascript" contentStyleType="text/css" height="607px" preserveAspectRatio="none" style="width:610px;height:607px;" version="1.1" viewBox="0 0 610 607" width="610px" zoomAndPan="magnify"><defs><filter height="300%" id="fxjfjv9p556o4" width="300%" x="-1" y="-1"><feGaussianBlur result="blurOut" stdDeviation="2.0"/><feColorMatrix in="blurOut" result="blurOut2" type="matrix" values="0 0 0 0 0 0 0 0 0 0 0 0 0 0 0 0 0 0 .4 0"/><feOffset dx="4.0" dy="4.0" in="blurOut2" result="blurOut3"/><feBlend in="SourceGraphic" in2="blurOut3" mode="normal"/></filter></defs><g><!--cluster Search--><polygon fill="#FFFFFF" filter="url(#fxjfjv9p556o4)" points="227,24,288,24,295,46.2969,407,46.2969,407,241,227,241,227,24" style="stroke: #000000; stroke-width: 1.5;"/><line style="stroke: #000000; stroke-width: 1.5;" x1="227" x2="295" y1="46.2969" y2="46.2969"/><text fill="#000000" font-family="sans-serif" font-size="14" font-weight="bold" lengthAdjust="spacingAndGlyphs" textLength="55" x="231" y="38.9951">Search</text><!--cluster Product--><polygon fill="#FFFFFF" filter="url(#fxjfjv9p556o4)" points="22,265,90,265,97,287.2969,292,287.2969,292,595,22,595,22,265" style="stroke: #000000; stroke-width: 1.5;"/><line style="stroke: #000000; stroke-width: 1.5;" x1="22" x2="97" y1="287.2969" y2="287.2969"/><text fill="#000000" font-family="sans-serif" font-size="14" font-weight="bold" lengthAdjust="spacingAndGlyphs" textLength="62" x="26" y="279.9951">Product</text><!--cluster Content--><polygon fill="#FFFFFF" filter="url(#fxjfjv9p556o4)" points="316,265,385,265,392,287.2969,588,287.2969,588,595,316,595,316,265" style="stroke: #000000; stroke-width: 1.5;"/><line style="stroke: #000000; stroke-width: 1.5;" x1="316" x2="392" y1="287.2969" y2="287.2969"/><text fill="#000000" font-family="sans-serif" font-size="14" font-weight="bold" lengthAdjust="spacingAndGlyphs" textLength="63" x="320" y="279.9951">Content</text><!--entity SearchUI--><rect fill="#FFC6DB" filter="url(#fxjfjv9p556o4)" height="53.2813" style="stroke: #000000; stroke-width: 1.5;" width="130" x="252" y="59"/><rect fill="#FFC6DB" height="10" style="stroke: #000000; stroke-width: 1.5;" width="15" x="362" y="64"/><rect fill="#FFC6DB" height="2" style="stroke: #000000; stroke-width: 1.5;" width="4" x="360" y="66"/><rect fill="#FFC6DB" height="2" style="stroke: #000000; stroke-width: 1.5;" width="4" x="360" y="70"/><text fill="#000000" font-family="sans-serif" font-size="20" lengthAdjust="spacingAndGlyphs" textLength="90" x="267" y="97.5645">SearchUI</text><!--entity Search-API--><rect fill="#FFC6DB" filter="url(#fxjfjv9p556o4)" height="53.2813" style="stroke: #000000; stroke-width: 1.5;" width="148" x="243" y="172"/><rect fill="#FFC6DB" height="10" style="stroke: #000000; stroke-width: 1.5;" width="15" x="371" y="177"/><rect fill="#FFC6DB" height="2" style="stroke: #000000; stroke-width: 1.5;" width="4" x="369" y="179"/><rect fill="#FFC6DB" height="2" style="stroke: #000000; stroke-width: 1.5;" width="4" x="369" y="183"/><text fill="#000000" font-family="sans-serif" font-size="20" lengthAdjust="spacingAndGlyphs" textLength="108" x="258" y="210.5645">Search-API</text><!--entity ProductUI--><rect fill="#FFC6DB" filter="url(#fxjfjv9p556o4)" height="53.2813" style="stroke: #000000; stroke-width: 1.5;" width="138" x="113" y="300"/><rect fill="#FFC6DB" height="10" style="stroke: #000000; stroke-width: 1.5;" width="15" x="231" y="305"/><rect fill="#FFC6DB" height="2" style="stroke: #000000; stroke-width: 1.5;" width="4" x="229" y="307"/><rect fill="#FFC6DB" height="2" style="stroke: #000000; stroke-width: 1.5;" width="4" x="229" y="311"/><text fill="#000000" font-family="sans-serif" font-size="20" lengthAdjust="spacingAndGlyphs" textLength="98" x="128" y="338.5645">ProductUI</text><!--entity ProductDataService--><rect fill="#FFC6DB" filter="url(#fxjfjv9p556o4)" height="53.2813" style="stroke: #000000; stroke-width: 1.5;" width="237" x="38.5" y="413"/><rect fill="#FFC6DB" height="10" style="stroke: #000000; stroke-width: 1.5;" width="15" x="255.5" y="418"/><rect fill="#FFC6DB" height="2" style="stroke: #000000; stroke-width: 1.5;" width="4" x="253.5" y="420"/><rect fill="#FFC6DB" height="2" style="stroke: #000000; stroke-width: 1.5;" width="4" x="253.5" y="424"/><text fill="#000000" font-family="sans-serif" font-size="20" lengthAdjust="spacingAndGlyphs" textLength="197" x="53.5" y="451.5645">ProductDataService</text><!--entity DataStorage--><rect fill="#FFC6DB" filter="url(#fxjfjv9p556o4)" height="53.2813" style="stroke: #000000; stroke-width: 1.5;" width="165" x="74.5" y="526"/><rect fill="#FFC6DB" height="10" style="stroke: #000000; stroke-width: 1.5;" width="15" x="219.5" y="531"/><rect fill="#FFC6DB" height="2" style="stroke: #000000; stroke-width: 1.5;" width="4" x="217.5" y="533"/><rect fill="#FFC6DB" height="2" style="stroke: #000000; stroke-width: 1.5;" width="4" x="217.5" y="537"/><text fill="#000000" font-family="sans-serif" font-size="20" lengthAdjust="spacingAndGlyphs" textLength="125" x="89.5" y="564.5645">DataStorage</text><!--entity ContentUI--><rect fill="#FFC6DB" filter="url(#fxjfjv9p556o4)" height="53.2813" style="stroke: #000000; stroke-width: 1.5;" width="141" x="356.5" y="300"/><rect fill="#FFC6DB" height="10" style="stroke: #000000; stroke-width: 1.5;" width="15" x="477.5" y="305"/><rect fill="#FFC6DB" height="2" style="stroke: #000000; stroke-width: 1.5;" width="4" x="475.5" y="307"/><rect fill="#FFC6DB" height="2" style="stroke: #000000; stroke-width: 1.5;" width="4" x="475.5" y="311"/><text fill="#000000" font-family="sans-serif" font-size="20" lengthAdjust="spacingAndGlyphs" textLength="101" x="371.5" y="338.5645">ContentUI</text><!--entity ContentDataService--><rect fill="#FFC6DB" filter="url(#fxjfjv9p556o4)" height="53.2813" style="stroke: #000000; stroke-width: 1.5;" width="240" x="332" y="413"/><rect fill="#FFC6DB" height="10" style="stroke: #000000; stroke-width: 1.5;" width="15" x="552" y="418"/><rect fill="#FFC6DB" height="2" style="stroke: #000000; stroke-width: 1.5;" width="4" x="550" y="420"/><rect fill="#FFC6DB" height="2" style="stroke: #000000; stroke-width: 1.5;" width="4" x="550" y="424"/><text fill="#000000" font-family="sans-serif" font-size="20" lengthAdjust="spacingAndGlyphs" textLength="200" x="347" y="451.5645">ContentDataService</text><!--entity DataStorage (CMS)--><rect fill="#FFC6DB" filter="url(#fxjfjv9p556o4)" height="53.2813" style="stroke: #000000; stroke-width: 1.5;" width="231" x="336.5" y="526"/><rect fill="#FFC6DB" height="10" style="stroke: #000000; stroke-width: 1.5;" width="15" x="547.5" y="531"/><rect fill="#FFC6DB" height="2" style="stroke: #000000; stroke-width: 1.5;" width="4" x="545.5" y="533"/><rect fill="#FFC6DB" height="2" style="stroke: #000000; stroke-width: 1.5;" width="4" x="545.5" y="537"/><text fill="#000000" font-family="sans-serif" font-size="20" lengthAdjust="spacingAndGlyphs" textLength="191" x="351.5" y="564.5645">DataStorage (CMS)</text><!--link ContentUI to ContentDataService--><path d="M432.798,353.245 C436.459,369.496 441.207,390.579 445.066,407.714 " fill="none" id="ContentUI-ContentDataService" style="stroke: #000000; stroke-width: 1.0;"/><polygon fill="#000000" points="446.233,412.895,448.1581,403.2361,445.1346,408.0171,440.3536,404.9936,446.233,412.895" style="stroke: #000000; stroke-width: 1.0;"/><!--link ContentDataService to DataStorage (CMS)--><path d="M452,466.245 C452,482.496 452,503.579 452,520.7139 " fill="none" id="ContentDataService-DataStorage (CMS)" style="stroke: #000000; stroke-width: 1.0;"/><polygon fill="#000000" points="452,525.895,456,516.895,452,520.895,448,516.895,452,525.895" style="stroke: #000000; stroke-width: 1.0;"/><!--link ProductUI to ProductDataService--><path d="M176.202,353.245 C172.541,369.496 167.793,390.579 163.934,407.714 " fill="none" id="ProductUI-ProductDataService" style="stroke: #000000; stroke-width: 1.0;"/><polygon fill="#000000" points="162.767,412.895,168.6464,404.9936,163.8654,408.0171,160.8419,403.2361,162.767,412.895" style="stroke: #000000; stroke-width: 1.0;"/><!--link ProductDataService to DataStorage--><path d="M157,466.245 C157,482.496 157,503.579 157,520.7139 " fill="none" id="ProductDataService-DataStorage" style="stroke: #000000; stroke-width: 1.0;"/><polygon fill="#000000" points="157,525.895,161,516.895,157,520.895,153,516.895,157,525.895" style="stroke: #000000; stroke-width: 1.0;"/><!--link SearchUI to Search-API--><path d="M317,112.245 C317,128.496 317,149.579 317,166.714 " fill="none" id="SearchUI-Search-API" style="stroke: #000000; stroke-width: 1.0;"/><polygon fill="#000000" points="317,171.895,321,162.895,317,166.895,313,162.895,317,171.895" style="stroke: #000000; stroke-width: 1.0;"/><!--link Search-API to ContentUI--><path d="M342.942,229.215 C361.647,250.641 386.642,279.272 404.505,299.732 " fill="none" id="Search-API-ContentUI" style="stroke: #000000; stroke-width: 1.0;"/><polygon fill="#000000" points="339.526,225.302,342.4331,234.712,342.8149,229.0681,348.4588,229.4498,339.526,225.302" style="stroke: #000000; stroke-width: 1.0;"/><!--link Search-API to ProductUI--><path d="M285.448,228.949 C262.461,250.403 231.621,279.187 209.608,299.732 " fill="none" id="Search-API-ProductUI" style="stroke: #000000; stroke-width: 1.0;"/><polygon fill="#000000" points="289.355,225.302,280.046,228.5179,285.6994,228.7133,285.504,234.3668,289.355,225.302" style="stroke: #000000; stroke-width: 1.0;"/><!--
@startuml
skinparam componentStyle uml2

skinparam component {
  BorderColor black
  BackgroundColor #FFC6DB
  ArrowColor black
  FontSize 20
}

package "Search" {
  [SearchUI]
  [Search-API]
}

package "Product" {
  [ProductUI]
  [ProductDataService]
  [DataStorage]
}

package "Content" {
  [ContentUI]
  [ContentDataService]
  [DataStorage (CMS)]
}

[ContentUI] - -> [ContentDataService]
[ContentDataService] - ->  [DataStorage (CMS)]

[ProductUI] - ->  [ProductDataService]
[ProductDataService] - -> [DataStorage]

[SearchUI] - -> [Search-API]
[Search-API] <- - [ContentUI]
[Search-API] <- - [ProductUI]
@enduml

PlantUML version 1.2019.05(Sat Apr 20 16:45:36 UTC 2019)
(GPL source distribution)
Java Runtime: Java(TM) SE Runtime Environment
JVM: Java HotSpot(TM) 64-Bit Server VM
Java Version: 1.7.0_25-b15
Operating System: Linux
Default Encoding: UTF-8
Language: en
Country: US
--></g></svg>