<?xml version="1.0" encoding="UTF-8" standalone="no"?><svg xmlns="http://www.w3.org/2000/svg" xmlns:xlink="http://www.w3.org/1999/xlink" contentScriptType="application/ecmascript" contentStyleType="text/css" height="637px" preserveAspectRatio="none" style="width:2087px;height:637px;" version="1.1" viewBox="0 0 2087 637" width="2087px" zoomAndPan="magnify"><defs/><g><!--entity Produkt--><rect fill="#FFC6DB" height="53.2813" style="stroke: #000000; stroke-width: 1.5;" width="118" x="1474" y="234"/><rect fill="#FFC6DB" height="10" style="stroke: #000000; stroke-width: 1.5;" width="15" x="1572" y="239"/><rect fill="#FFC6DB" height="2" style="stroke: #000000; stroke-width: 1.5;" width="4" x="1570" y="241"/><rect fill="#FFC6DB" height="2" style="stroke: #000000; stroke-width: 1.5;" width="4" x="1570" y="245"/><text fill="#000000" font-family="sans-serif" font-size="20" lengthAdjust="spacingAndGlyphs" textLength="78" x="1489" y="272.5645">Produkt</text><!--entity (redaktioneller) Content--><rect fill="#FFC6DB" height="53.2813" style="stroke: #000000; stroke-width: 1.5;" width="282" x="929" y="234"/><rect fill="#FFC6DB" height="10" style="stroke: #000000; stroke-width: 1.5;" width="15" x="1191" y="239"/><rect fill="#FFC6DB" height="2" style="stroke: #000000; stroke-width: 1.5;" width="4" x="1189" y="241"/><rect fill="#FFC6DB" height="2" style="stroke: #000000; stroke-width: 1.5;" width="4" x="1189" y="245"/><text fill="#000000" font-family="sans-serif" font-size="20" lengthAdjust="spacingAndGlyphs" textLength="242" x="944" y="272.5645">(redaktioneller) Content</text><!--entity Suche--><rect fill="#FFC6DB" height="53.2813" style="stroke: #000000; stroke-width: 1.5;" width="102" x="1109" y="347"/><rect fill="#FFC6DB" height="10" style="stroke: #000000; stroke-width: 1.5;" width="15" x="1191" y="352"/><rect fill="#FFC6DB" height="2" style="stroke: #000000; stroke-width: 1.5;" width="4" x="1189" y="354"/><rect fill="#FFC6DB" height="2" style="stroke: #000000; stroke-width: 1.5;" width="4" x="1189" y="358"/><text fill="#000000" font-family="sans-serif" font-size="20" lengthAdjust="spacingAndGlyphs" textLength="62" x="1124" y="385.5645">Suche</text><!--entity Checkout--><rect fill="#FFFFFF" height="53.2813" style="stroke: #000000; stroke-width: 1.5;" width="135" x="848.5" y="8"/><rect fill="#FFFFFF" height="10" style="stroke: #000000; stroke-width: 1.5;" width="15" x="963.5" y="13"/><rect fill="#FFFFFF" height="2" style="stroke: #000000; stroke-width: 1.5;" width="4" x="961.5" y="15"/><rect fill="#FFFFFF" height="2" style="stroke: #000000; stroke-width: 1.5;" width="4" x="961.5" y="19"/><text fill="#000000" font-family="sans-serif" font-size="20" lengthAdjust="spacingAndGlyphs" textLength="95" x="863.5" y="46.5645">Checkout</text><!--entity Kundenkonto--><rect fill="#FFFFFF" height="53.2813" style="stroke: #000000; stroke-width: 1.5;" width="174" x="632" y="121"/><rect fill="#FFFFFF" height="10" style="stroke: #000000; stroke-width: 1.5;" width="15" x="786" y="126"/><rect fill="#FFFFFF" height="2" style="stroke: #000000; stroke-width: 1.5;" width="4" x="784" y="128"/><rect fill="#FFFFFF" height="2" style="stroke: #000000; stroke-width: 1.5;" width="4" x="784" y="132"/><text fill="#000000" font-family="sans-serif" font-size="20" lengthAdjust="spacingAndGlyphs" textLength="134" x="647" y="159.5645">Kundenkonto</text><!--entity Kundenauthentifizierung--><rect fill="#FFFFFF" height="53.2813" style="stroke: #000000; stroke-width: 1.5;" width="291" x="318.5" y="234"/><rect fill="#FFFFFF" height="10" style="stroke: #000000; stroke-width: 1.5;" width="15" x="589.5" y="239"/><rect fill="#FFFFFF" height="2" style="stroke: #000000; stroke-width: 1.5;" width="4" x="587.5" y="241"/><rect fill="#FFFFFF" height="2" style="stroke: #000000; stroke-width: 1.5;" width="4" x="587.5" y="245"/><text fill="#000000" font-family="sans-serif" font-size="20" lengthAdjust="spacingAndGlyphs" textLength="251" x="333.5" y="272.5645">Kundenauthentifizierung</text><!--entity Warenkorb--><rect fill="#FFFFFF" height="53.2813" style="stroke: #000000; stroke-width: 1.5;" width="150" x="841" y="121"/><rect fill="#FFFFFF" height="10" style="stroke: #000000; stroke-width: 1.5;" width="15" x="971" y="126"/><rect fill="#FFFFFF" height="2" style="stroke: #000000; stroke-width: 1.5;" width="4" x="969" y="128"/><rect fill="#FFFFFF" height="2" style="stroke: #000000; stroke-width: 1.5;" width="4" x="969" y="132"/><text fill="#000000" font-family="sans-serif" font-size="20" lengthAdjust="spacingAndGlyphs" textLength="110" x="856" y="159.5645">Warenkorb</text><!--entity Filialen--><rect fill="#FFFFFF" height="53.2813" style="stroke: #000000; stroke-width: 1.5;" width="113" x="1675.5" y="121"/><rect fill="#FFFFFF" height="10" style="stroke: #000000; stroke-width: 1.5;" width="15" x="1768.5" y="126"/><rect fill="#FFFFFF" height="2" style="stroke: #000000; stroke-width: 1.5;" width="4" x="1766.5" y="128"/><rect fill="#FFFFFF" height="2" style="stroke: #000000; stroke-width: 1.5;" width="4" x="1766.5" y="132"/><text fill="#000000" font-family="sans-serif" font-size="20" lengthAdjust="spacingAndGlyphs" textLength="73" x="1690.5" y="159.5645">Filialen</text><!--entity Tracking--><rect fill="#FFFFFF" height="53.2813" style="stroke: #000000; stroke-width: 1.5;" width="127" x="1096.5" y="460"/><rect fill="#FFFFFF" height="10" style="stroke: #000000; stroke-width: 1.5;" width="15" x="1203.5" y="465"/><rect fill="#FFFFFF" height="2" style="stroke: #000000; stroke-width: 1.5;" width="4" x="1201.5" y="467"/><rect fill="#FFFFFF" height="2" style="stroke: #000000; stroke-width: 1.5;" width="4" x="1201.5" y="471"/><text fill="#000000" font-family="sans-serif" font-size="20" lengthAdjust="spacingAndGlyphs" textLength="87" x="1111.5" y="498.5645">Tracking</text><!--entity Composing--><rect fill="#FFFFFF" height="53.2813" style="stroke: #000000; stroke-width: 1.5;" width="153" x="657.5" y="573"/><rect fill="#FFFFFF" height="10" style="stroke: #000000; stroke-width: 1.5;" width="15" x="790.5" y="578"/><rect fill="#FFFFFF" height="2" style="stroke: #000000; stroke-width: 1.5;" width="4" x="788.5" y="580"/><rect fill="#FFFFFF" height="2" style="stroke: #000000; stroke-width: 1.5;" width="4" x="788.5" y="584"/><text fill="#000000" font-family="sans-serif" font-size="20" lengthAdjust="spacingAndGlyphs" textLength="113" x="672.5" y="611.5645">Composing</text><!--entity Filialverfügbarkeit--><rect fill="#FFFFFF" height="53.2813" style="stroke: #000000; stroke-width: 1.5;" width="223" x="1793.5" y="8"/><rect fill="#FFFFFF" height="10" style="stroke: #000000; stroke-width: 1.5;" width="15" x="1996.5" y="13"/><rect fill="#FFFFFF" height="2" style="stroke: #000000; stroke-width: 1.5;" width="4" x="1994.5" y="15"/><rect fill="#FFFFFF" height="2" style="stroke: #000000; stroke-width: 1.5;" width="4" x="1994.5" y="19"/><text fill="#000000" font-family="sans-serif" font-size="20" lengthAdjust="spacingAndGlyphs" textLength="183" x="1808.5" y="46.5645">Filialverfügbarkeit</text><!--entity Produktbewertungen--><rect fill="#FFFFFF" height="53.2813" style="stroke: #000000; stroke-width: 1.5;" width="252" x="1388" y="121"/><rect fill="#FFFFFF" height="10" style="stroke: #000000; stroke-width: 1.5;" width="15" x="1620" y="126"/><rect fill="#FFFFFF" height="2" style="stroke: #000000; stroke-width: 1.5;" width="4" x="1618" y="128"/><rect fill="#FFFFFF" height="2" style="stroke: #000000; stroke-width: 1.5;" width="4" x="1618" y="132"/><text fill="#000000" font-family="sans-serif" font-size="20" lengthAdjust="spacingAndGlyphs" textLength="212" x="1403" y="159.5645">Produktbewertungen</text><!--entity Produktempfehlungen--><rect fill="#FFFFFF" height="53.2813" style="stroke: #000000; stroke-width: 1.5;" width="265" x="1347.5" y="8"/><rect fill="#FFFFFF" height="10" style="stroke: #000000; stroke-width: 1.5;" width="15" x="1592.5" y="13"/><rect fill="#FFFFFF" height="2" style="stroke: #000000; stroke-width: 1.5;" width="4" x="1590.5" y="15"/><rect fill="#FFFFFF" height="2" style="stroke: #000000; stroke-width: 1.5;" width="4" x="1590.5" y="19"/><text fill="#000000" font-family="sans-serif" font-size="20" lengthAdjust="spacingAndGlyphs" textLength="225" x="1362.5" y="46.5645">Produktempfehlungen</text><!--entity Topseller--><rect fill="#FFFFFF" height="53.2813" style="stroke: #000000; stroke-width: 1.5;" width="131" x="1823.5" y="121"/><rect fill="#FFFFFF" height="10" style="stroke: #000000; stroke-width: 1.5;" width="15" x="1934.5" y="126"/><rect fill="#FFFFFF" height="2" style="stroke: #000000; stroke-width: 1.5;" width="4" x="1932.5" y="128"/><rect fill="#FFFFFF" height="2" style="stroke: #000000; stroke-width: 1.5;" width="4" x="1932.5" y="132"/><text fill="#000000" font-family="sans-serif" font-size="20" lengthAdjust="spacingAndGlyphs" textLength="91" x="1838.5" y="159.5645">Topseller</text><!--entity Gewinnspiele--><rect fill="#FFFFFF" height="53.2813" style="stroke: #000000; stroke-width: 1.5;" width="176" x="159" y="121"/><rect fill="#FFFFFF" height="10" style="stroke: #000000; stroke-width: 1.5;" width="15" x="315" y="126"/><rect fill="#FFFFFF" height="2" style="stroke: #000000; stroke-width: 1.5;" width="4" x="313" y="128"/><rect fill="#FFFFFF" height="2" style="stroke: #000000; stroke-width: 1.5;" width="4" x="313" y="132"/><text fill="#000000" font-family="sans-serif" font-size="20" lengthAdjust="spacingAndGlyphs" textLength="136" x="174" y="159.5645">Gewinnspiele</text><!--entity Form Data Service--><rect fill="#FFFFFF" height="53.2813" style="stroke: #000000; stroke-width: 1.5;" width="224" x="59" y="234"/><rect fill="#FFFFFF" height="10" style="stroke: #000000; stroke-width: 1.5;" width="15" x="263" y="239"/><rect fill="#FFFFFF" height="2" style="stroke: #000000; stroke-width: 1.5;" width="4" x="261" y="241"/><rect fill="#FFFFFF" height="2" style="stroke: #000000; stroke-width: 1.5;" width="4" x="261" y="245"/><text fill="#000000" font-family="sans-serif" font-size="20" lengthAdjust="spacingAndGlyphs" textLength="184" x="74" y="272.5645">Form Data Service</text><!--link Checkout to Kundenkonto--><path d="M870.309,61.245 C839.975,78.336 800.154,100.773 768.978,118.34 " fill="none" id="Checkout-Kundenkonto" style="stroke: #000000; stroke-width: 1.0;"/><polygon fill="#000000" points="764.443,120.895,774.2475,119.9618,768.7991,118.4405,770.3204,112.992,764.443,120.895" style="stroke: #000000; stroke-width: 1.0;"/><!--link Checkout to Kundenauthentifizierung--><path d="M848.146,42.304 C747.968,53.612 567.035,79.25 518,121 C485.918,148.316 472.793,197.122 467.494,228.898 " fill="none" id="Checkout-Kundenauthentifizierung" style="stroke: #000000; stroke-width: 1.0;"/><polygon fill="#000000" points="466.71,233.846,472.0724,225.585,467.4944,228.9079,464.1715,224.3299,466.71,233.846" style="stroke: #000000; stroke-width: 1.0;"/><!--link Checkout to Warenkorb--><path d="M916,61.245 C916,77.496 916,98.579 916,115.714 " fill="none" id="Checkout-Warenkorb" style="stroke: #000000; stroke-width: 1.0;"/><polygon fill="#000000" points="916,120.895,920,111.895,916,115.895,912,111.895,916,120.895" style="stroke: #000000; stroke-width: 1.0;"/><!--link Checkout to Filialen--><path d="M983.586,38.378 C1114.99,45.048 1413.47,65.474 1658,121 C1662.1,121.93 1666.28,123.007 1670.47,124.182 " fill="none" id="Checkout-Filialen" style="stroke: #000000; stroke-width: 1.0;"/><polygon fill="#000000" points="1675.4,125.604,1667.8611,119.2665,1670.5958,124.2183,1665.644,126.9531,1675.4,125.604" style="stroke: #000000; stroke-width: 1.0;"/><!--link Checkout to (redaktioneller) Content--><path d="M949.813,61.231 C968.75,76.933 991.75,98.308 1008,121 C1032.21,154.813 1050.14,199.592 1060.33,228.954 " fill="none" id="Checkout-(redaktioneller) Content" style="stroke: #000000; stroke-width: 1.0;"/><polygon fill="#000000" points="1062.02,233.89,1062.8898,224.0796,1060.4008,229.1595,1055.3209,226.6704,1062.02,233.89" style="stroke: #000000; stroke-width: 1.0;"/><!--link Checkout to Tracking--><path d="M983.527,56.47 C1058.65,83.847 1176.25,139.737 1228,234 C1263.51,298.672 1252.32,330.346 1228,400 C1220.62,421.129 1205.6,440.945 1191.54,456.17 " fill="none" id="Checkout-Tracking" style="stroke: #000000; stroke-width: 1.0;"/><polygon fill="#000000" points="1188,459.94,1197.0795,456.1239,1191.4253,456.2976,1191.2516,450.6434,1188,459.94" style="stroke: #000000; stroke-width: 1.0;"/><!--link Checkout to Composing--><path d="M848.42,37.154 C683.541,42.105 265.083,60.442 141,121 C63.7493,158.702 6,173.54 6,259.5 C6,259.5 6,259.5 6,374.5 C6,508.523 462.426,570.7442 652.475,590.8428 " fill="none" id="Checkout-Composing" style="stroke: #000000; stroke-width: 1.0;"/><polygon fill="#000000" points="657.467,591.3676,648.9346,586.4484,652.4944,590.8447,648.0981,594.4045,657.467,591.3676" style="stroke: #000000; stroke-width: 1.0;"/><!--link Warenkorb to (redaktioneller) Content--><path d="M951.718,174.245 C975.236,191.196 1006.05,213.406 1030.33,230.907 " fill="none" id="Warenkorb-(redaktioneller) Content" style="stroke: #000000; stroke-width: 1.0;"/><polygon fill="#000000" points="1034.48,233.895,1029.5054,225.3948,1030.4196,230.9773,1024.8371,231.8915,1034.48,233.895" style="stroke: #000000; stroke-width: 1.0;"/><!--link Warenkorb to Produkt--><path d="M991.039,162 C1113.35,184.003 1353.56,227.218 1468.6,247.915 " fill="none" id="Warenkorb-Produkt" style="stroke: #000000; stroke-width: 1.0;"/><polygon fill="#000000" points="1473.65,248.823,1465.5008,243.2921,1468.7291,247.9374,1464.0838,251.1656,1473.65,248.823" style="stroke: #000000; stroke-width: 1.0;"/><!--link Warenkorb to Kundenauthentifizierung--><path d="M840.936,169.316 C834.874,170.926 828.839,172.505 823,174 C742.235,194.684 650.819,216.432 580.449,232.817 " fill="none" id="Warenkorb-Kundenauthentifizierung" style="stroke: #000000; stroke-width: 1.0;"/><polygon fill="#000000" points="575.419,233.988,585.0912,235.8448,580.289,232.8551,583.2787,228.0529,575.419,233.988" style="stroke: #000000; stroke-width: 1.0;"/><!--link Warenkorb to Tracking--><path d="M908.219,174.214 C900.959,203.177 893.615,250.908 911,287 C949.873,367.703 1039.29,425.766 1099.69,457.519 " fill="none" id="Warenkorb-Tracking" style="stroke: #000000; stroke-width: 1.0;"/><polygon fill="#000000" points="1104.35,459.947,1098.222,452.2368,1099.9174,457.6336,1094.5206,459.3289,1104.35,459.947" style="stroke: #000000; stroke-width: 1.0;"/><!--link Warenkorb to Composing--><path d="M905.561,174.31 C874.087,252.131 780.206,484.254 746.348,567.9702 " fill="none" id="Warenkorb-Composing" style="stroke: #000000; stroke-width: 1.0;"/><polygon fill="#000000" points="744.397,572.7941,751.4796,565.9504,746.2717,568.1588,744.0632,562.9509,744.397,572.7941" style="stroke: #000000; stroke-width: 1.0;"/><!--link (redaktioneller) Content to Tracking--><path d="M1069.93,287.118 C1070.73,315.785 1074.73,363.052 1091,400 C1100.14,420.761 1115.68,440.684 1129.7,456.067 " fill="none" id="(redaktioneller) Content-Tracking" style="stroke: #000000; stroke-width: 1.0;"/><polygon fill="#000000" points="1133.22,459.878,1130.0455,450.5548,1129.825,456.2073,1124.1724,455.9868,1133.22,459.878" style="stroke: #000000; stroke-width: 1.0;"/><!--link (redaktioneller) Content to Suche--><path d="M1090.87,287.245 C1104.28,303.776 1121.74,325.308 1135.75,342.597 " fill="none" id="(redaktioneller) Content-Suche" style="stroke: #000000; stroke-width: 1.0;"/><polygon fill="#000000" points="1139.24,346.895,1136.6818,337.3842,1136.0922,343.0102,1130.4662,342.4207,1139.24,346.895" style="stroke: #000000; stroke-width: 1.0;"/><!--link Produkt to Suche--><path d="M1473.9,279.088 C1403.08,300.162 1285.33,335.204 1215.95,355.851 " fill="none" id="Produkt-Suche" style="stroke: #000000; stroke-width: 1.0;"/><polygon fill="#000000" points="1211.03,357.313,1220.7976,358.5755,1215.8217,355.8848,1218.5124,350.9089,1211.03,357.313" style="stroke: #000000; stroke-width: 1.0;"/><!--link Produkt to Tracking--><path d="M1520.8,287.079 C1504.7,318.193 1473.46,370.236 1432,400 C1371.21,443.644 1287.35,465.558 1228.88,476.187 " fill="none" id="Produkt-Tracking" style="stroke: #000000; stroke-width: 1.0;"/><polygon fill="#000000" points="1223.65,477.119,1233.2095,479.489,1228.5735,476.2475,1231.815,471.6115,1223.65,477.119" style="stroke: #000000; stroke-width: 1.0;"/><!--link Produkt to Composing--><path d="M1529.79,287.026 C1524.74,317.366 1512.31,367.913 1483,400 C1402.94,487.643 1354.33,477.699 1241,513 C1094.96,558.489 917.268,581.3888 815.73,591.5588 " fill="none" id="Produkt-Composing" style="stroke: #000000; stroke-width: 1.0;"/><polygon fill="#000000" points="810.653,592.063,820.0043,595.1537,815.6285,591.5687,819.2135,587.1929,810.653,592.063" style="stroke: #000000; stroke-width: 1.0;"/><!--link Filialverfügbarkeit to Produkt--><path d="M1946.48,61.228 C1987.09,89.586 2038.6,136.193 2007,174 C1955.48,235.641 1714.28,252.917 1597.15,257.7 " fill="none" id="Filialverfügbarkeit-Produkt" style="stroke: #000000; stroke-width: 1.0;"/><polygon fill="#000000" points="1592.01,257.906,1601.1628,261.5428,1597.006,257.706,1600.8428,253.5492,1592.01,257.906" style="stroke: #000000; stroke-width: 1.0;"/><!--link Filialverfügbarkeit to Filialen--><path d="M1864.88,61.245 C1838.35,78.266 1803.55,100.59 1776.23,118.124 " fill="none" id="Filialverfügbarkeit-Filialen" style="stroke: #000000; stroke-width: 1.0;"/><polygon fill="#000000" points="1771.91,120.895,1781.645,119.4019,1776.1184,118.1951,1777.3252,112.6685,1771.91,120.895" style="stroke: #000000; stroke-width: 1.0;"/><!--link Produktbewertungen to Produkt--><path d="M1518.41,174.245 C1521.19,190.496 1524.8,211.579 1527.73,228.714 " fill="none" id="Produktbewertungen-Produkt" style="stroke: #000000; stroke-width: 1.0;"/><polygon fill="#000000" points="1528.62,233.895,1531.043,224.3488,1527.7758,228.9668,1523.1578,225.6996,1528.62,233.895" style="stroke: #000000; stroke-width: 1.0;"/><!--link Produktbewertungen to Tracking--><path d="M1495.71,174.354 C1484.02,191.139 1468.72,213.609 1456,234 C1411,306.115 1424.54,343.529 1361,400 C1323.34,433.475 1270.62,455.235 1228.62,468.422 " fill="none" id="Produktbewertungen-Tracking" style="stroke: #000000; stroke-width: 1.0;"/><polygon fill="#000000" points="1223.82,469.909,1233.6019,471.0558,1228.5944,468.4241,1231.2261,463.4167,1223.82,469.909" style="stroke: #000000; stroke-width: 1.0;"/><!--link Produktempfehlungen to Produkt--><path d="M1612.64,49.746 C1750.35,65.9 1948.93,93.571 1972,121 C2075.91,244.526 1742.58,259.348 1597.27,260.102 " fill="none" id="Produktempfehlungen-Produkt" style="stroke: #000000; stroke-width: 1.0;"/><polygon fill="#000000" points="1592.19,260.123,1601.2014,264.0973,1597.19,260.1087,1601.1785,256.0973,1592.19,260.123" style="stroke: #000000; stroke-width: 1.0;"/><!--link Produktempfehlungen to Kundenauthentifizierung--><path d="M1347.37,43.936 C1121.28,59.007 679.209,91.724 614,121 C559.934,145.273 512.505,196.921 486.107,229.831 " fill="none" id="Produktempfehlungen-Kundenauthentifizierung" style="stroke: #000000; stroke-width: 1.0;"/><polygon fill="#000000" points="482.993,233.748,491.7245,229.1917,486.1043,229.8339,485.462,224.2136,482.993,233.748" style="stroke: #000000; stroke-width: 1.0;"/><!--link Produktempfehlungen to Tracking--><path d="M1436.67,61.039 C1414.23,76.097 1387.87,96.91 1370,121 C1290.89,227.671 1340.39,292.073 1263,400 C1247.13,422.128 1224.21,441.911 1204.02,456.86 " fill="none" id="Produktempfehlungen-Tracking" style="stroke: #000000; stroke-width: 1.0;"/><polygon fill="#000000" points="1199.76,459.976,1209.3843,457.8847,1203.7937,457.0214,1204.6569,451.4308,1199.76,459.976" style="stroke: #000000; stroke-width: 1.0;"/><!--link Produktempfehlungen to Topseller--><path d="M1581.98,61.086 C1646.4,77.535 1731.29,99.737 1806,121 C1810.06,122.157 1814.23,123.366 1818.44,124.602 " fill="none" id="Produktempfehlungen-Topseller" style="stroke: #000000; stroke-width: 1.0;"/><polygon fill="#000000" points="1823.38,126.064,1815.8795,119.681,1818.5843,124.6493,1813.616,127.3541,1823.38,126.064" style="stroke: #000000; stroke-width: 1.0;"/><!--link Topseller to Produkt--><path d="M1823.29,168.988 C1758.77,189.105 1660.99,219.594 1597.05,239.53 " fill="none" id="Topseller-Produkt" style="stroke: #000000; stroke-width: 1.0;"/><polygon fill="#000000" points="1592.12,241.066,1601.9052,242.1836,1596.89,239.5669,1599.5067,234.5516,1592.12,241.066" style="stroke: #000000; stroke-width: 1.0;"/><!--link Kundenkonto to (redaktioneller) Content--><path d="M799.967,174.105 C855.093,191.538 927.956,214.58 984.1,232.335 " fill="none" id="Kundenkonto-(redaktioneller) Content" style="stroke: #000000; stroke-width: 1.0;"/><polygon fill="#000000" points="989.137,233.928,981.7614,227.4011,984.3696,232.4208,979.3499,235.0289,989.137,233.928" style="stroke: #000000; stroke-width: 1.0;"/><!--link Kundenkonto to Kundenauthentifizierung--><path d="M660.178,174.105 C620.603,191.332 568.445,214.036 527.858,231.703 " fill="none" id="Kundenkonto-Kundenauthentifizierung" style="stroke: #000000; stroke-width: 1.0;"/><polygon fill="#000000" points="522.968,233.832,532.8166,233.9071,527.5524,231.8362,529.6233,226.5721,522.968,233.832" style="stroke: #000000; stroke-width: 1.0;"/><!--link Kundenkonto to Tracking--><path d="M735.906,174.152 C769.956,224.03 851.567,334.889 945,400 C989.676,431.134 1047.32,453.269 1091.68,467.206 " fill="none" id="Kundenkonto-Tracking" style="stroke: #000000; stroke-width: 1.0;"/><polygon fill="#000000" points="1096.47,468.697,1089.0645,462.2041,1091.6957,467.2117,1086.688,469.8429,1096.47,468.697" style="stroke: #000000; stroke-width: 1.0;"/><!--link Kundenkonto to Composing--><path d="M715.103,174.315 C706.74,234.212 689.285,387.13 708,513 C710.771,531.636 716.764,551.8309 722.298,567.9122 " fill="none" id="Kundenkonto-Composing" style="stroke: #000000; stroke-width: 1.0;"/><polygon fill="#000000" points="723.997,572.7646,724.7978,562.9484,722.3445,568.0456,717.2473,565.5923,723.997,572.7646" style="stroke: #000000; stroke-width: 1.0;"/><!--link Gewinnspiele to Kundenauthentifizierung--><path d="M297.057,174.105 C330.597,191.262 374.759,213.851 409.236,231.487 " fill="none" id="Gewinnspiele-Kundenauthentifizierung" style="stroke: #000000; stroke-width: 1.0;"/><polygon fill="#000000" points="413.82,233.832,407.6292,226.1721,409.3686,231.5549,403.9858,233.2943,413.82,233.832" style="stroke: #000000; stroke-width: 1.0;"/><!--link Gewinnspiele to Form Data Service--><path d="M229.373,174.245 C218.054,190.776 203.312,212.308 191.474,229.597 " fill="none" id="Gewinnspiele-Form Data Service" style="stroke: #000000; stroke-width: 1.0;"/><polygon fill="#000000" points="188.531,233.895,196.9156,228.7279,191.3554,229.7691,190.3142,224.2089,188.531,233.895" style="stroke: #000000; stroke-width: 1.0;"/><!--link Suche to Tracking--><path d="M1160,400.245 C1160,416.496 1160,437.579 1160,454.714 " fill="none" id="Suche-Tracking" style="stroke: #000000; stroke-width: 1.0;"/><polygon fill="#000000" points="1160,459.895,1164,450.895,1160,454.895,1156,450.895,1160,459.895" style="stroke: #000000; stroke-width: 1.0;"/><!--link Tracking to Composing--><path d="M1096.22,504.118 C1021.61,523.558 897.915,555.7898 816.172,577.0889 " fill="none" id="Tracking-Composing" style="stroke: #000000; stroke-width: 1.0;"/><polygon fill="#000000" points="810.85,578.4758,820.5676,580.0786,815.6886,577.2157,818.5515,572.3368,810.85,578.4758" style="stroke: #000000; stroke-width: 1.0;"/><!--
@startuml
skinparam componentStyle uml2

skinparam backgroundColor transparent
skinparam shadowing false

[Produkt] #FFC6DB
[(redaktioneller) Content] #FFC6DB
[Suche] #FFC6DB

skinparam component {
  BorderColor black
  BackgroundColor #FFFFFF
  ArrowColor black
  FontSize 20
}

[Checkout] - -> [Kundenkonto]
[Checkout] - -> [Kundenauthentifizierung]
[Checkout] - -> [Warenkorb]
[Checkout] - -> [Filialen]
[Checkout] - -> [(redaktioneller) Content]
[Checkout] - -> [Tracking]
[Checkout] - -> [Composing]

[Warenkorb] - -> [(redaktioneller) Content]
[Warenkorb] - -> [Produkt]
[Warenkorb] - -> [Kundenauthentifizierung]
[Warenkorb] - -> [Tracking]
[Warenkorb] - -> [Composing]

[(redaktioneller) Content] - -> [Tracking]
[(redaktioneller) Content] - -> [Suche]

[Produkt] - -> [Suche]
[Produkt] - -> [Tracking]
[Produkt] - -> [Composing]

[Filialverfügbarkeit] - -> [Produkt]
[Filialverfügbarkeit] - -> [Filialen]

[Produktbewertungen] - -> [Produkt]
[Produktbewertungen] - -> [Tracking]

[Produktempfehlungen] - -> [Produkt]
[Produktempfehlungen] - -> [Kundenauthentifizierung]
[Produktempfehlungen] - -> [Tracking]
[Produktempfehlungen] - -> [Topseller]

[Topseller] - -> [Produkt]

[Kundenkonto] - -> [(redaktioneller) Content]
[Kundenkonto] -> [Kundenauthentifizierung]
[Kundenkonto] - -> [Tracking]
[Kundenkonto] - -> [Composing]

[Gewinnspiele] - -> [Kundenauthentifizierung]
[Gewinnspiele] - -> [Form Data Service]

[Suche] - -> [Tracking]

[Tracking] - -> [Composing]
@enduml

PlantUML version 1.2019.07beta1(Unknown compile time)
(GPL source distribution)
Java Runtime: Java(TM) SE Runtime Environment
JVM: Java HotSpot(TM) 64-Bit Server VM
Java Version: 1.7.0_25-b15
Operating System: Linux
Default Encoding: UTF-8
Language: en
Country: US
--></g></svg>