<?xml version="1.0" encoding="UTF-8" standalone="no"?><svg xmlns="http://www.w3.org/2000/svg" xmlns:xlink="http://www.w3.org/1999/xlink" contentScriptType="application/ecmascript" contentStyleType="text/css" height="607px" preserveAspectRatio="none" style="width:722px;height:607px;" version="1.1" viewBox="0 0 722 607" width="722px" zoomAndPan="magnify"><defs><filter height="300%" id="f11cqy7bb96tq8" width="300%" x="-1" y="-1"><feGaussianBlur result="blurOut" stdDeviation="2.0"/><feColorMatrix in="blurOut" result="blurOut2" type="matrix" values="0 0 0 0 0 0 0 0 0 0 0 0 0 0 0 0 0 0 .4 0"/><feOffset dx="4.0" dy="4.0" in="blurOut2" result="blurOut3"/><feBlend in="SourceGraphic" in2="blurOut3" mode="normal"/></filter></defs><g><!--cluster Search--><polygon fill="#FFFFFF" filter="url(#f11cqy7bb96tq8)" points="297,24,358,24,365,46.2969,477,46.2969,477,241,297,241,297,24" style="stroke: #000000; stroke-width: 1.5;"/><line style="stroke: #000000; stroke-width: 1.5;" x1="297" x2="365" y1="46.2969" y2="46.2969"/><text fill="#000000" font-family="sans-serif" font-size="14" font-weight="bold" lengthAdjust="spacingAndGlyphs" textLength="55" x="301" y="38.9951">Search</text><!--cluster Product--><polygon fill="#FFFFFF" filter="url(#f11cqy7bb96tq8)" points="22,265,90,265,97,287.2969,348,287.2969,348,595,22,595,22,265" style="stroke: #000000; stroke-width: 1.5;"/><line style="stroke: #000000; stroke-width: 1.5;" x1="22" x2="97" y1="287.2969" y2="287.2969"/><text fill="#000000" font-family="sans-serif" font-size="14" font-weight="bold" lengthAdjust="spacingAndGlyphs" textLength="62" x="26" y="279.9951">Product</text><!--cluster Content--><polygon fill="#FFFFFF" filter="url(#f11cqy7bb96tq8)" points="372,265,441,265,448,287.2969,700,287.2969,700,595,372,595,372,265" style="stroke: #000000; stroke-width: 1.5;"/><line style="stroke: #000000; stroke-width: 1.5;" x1="372" x2="448" y1="287.2969" y2="287.2969"/><text fill="#000000" font-family="sans-serif" font-size="14" font-weight="bold" lengthAdjust="spacingAndGlyphs" textLength="63" x="376" y="279.9951">Content</text><!--entity SearchUI--><rect fill="#FFC6DB" filter="url(#f11cqy7bb96tq8)" height="53.2813" style="stroke: #000000; stroke-width: 1.5;" width="130" x="322" y="59"/><rect fill="#FFC6DB" height="10" style="stroke: #000000; stroke-width: 1.5;" width="15" x="432" y="64"/><rect fill="#FFC6DB" height="2" style="stroke: #000000; stroke-width: 1.5;" width="4" x="430" y="66"/><rect fill="#FFC6DB" height="2" style="stroke: #000000; stroke-width: 1.5;" width="4" x="430" y="70"/><text fill="#000000" font-family="sans-serif" font-size="20" lengthAdjust="spacingAndGlyphs" textLength="90" x="337" y="97.5645">SearchUI</text><!--entity Search-API--><rect fill="#FFC6DB" filter="url(#f11cqy7bb96tq8)" height="53.2813" style="stroke: #000000; stroke-width: 1.5;" width="148" x="313" y="172"/><rect fill="#FFC6DB" height="10" style="stroke: #000000; stroke-width: 1.5;" width="15" x="441" y="177"/><rect fill="#FFC6DB" height="2" style="stroke: #000000; stroke-width: 1.5;" width="4" x="439" y="179"/><rect fill="#FFC6DB" height="2" style="stroke: #000000; stroke-width: 1.5;" width="4" x="439" y="183"/><text fill="#000000" font-family="sans-serif" font-size="20" lengthAdjust="spacingAndGlyphs" textLength="108" x="328" y="210.5645">Search-API</text><!--entity ProductUI--><rect fill="#FFC6DB" filter="url(#f11cqy7bb96tq8)" height="53.2813" style="stroke: #000000; stroke-width: 1.5;" width="138" x="169" y="300"/><rect fill="#FFC6DB" height="10" style="stroke: #000000; stroke-width: 1.5;" width="15" x="287" y="305"/><rect fill="#FFC6DB" height="2" style="stroke: #000000; stroke-width: 1.5;" width="4" x="285" y="307"/><rect fill="#FFC6DB" height="2" style="stroke: #000000; stroke-width: 1.5;" width="4" x="285" y="311"/><text fill="#000000" font-family="sans-serif" font-size="20" lengthAdjust="spacingAndGlyphs" textLength="98" x="184" y="338.5645">ProductUI</text><!--entity ProductDataService--><rect fill="#FFC6DB" filter="url(#f11cqy7bb96tq8)" height="53.2813" style="stroke: #000000; stroke-width: 1.5;" width="237" x="80.5" y="413"/><rect fill="#FFC6DB" height="10" style="stroke: #000000; stroke-width: 1.5;" width="15" x="297.5" y="418"/><rect fill="#FFC6DB" height="2" style="stroke: #000000; stroke-width: 1.5;" width="4" x="295.5" y="420"/><rect fill="#FFC6DB" height="2" style="stroke: #000000; stroke-width: 1.5;" width="4" x="295.5" y="424"/><text fill="#000000" font-family="sans-serif" font-size="20" lengthAdjust="spacingAndGlyphs" textLength="197" x="95.5" y="451.5645">ProductDataService</text><!--entity SearchPlatform (Product)--><rect fill="#FFC6DB" filter="url(#f11cqy7bb96tq8)" height="53.2813" style="stroke: #000000; stroke-width: 1.5;" width="293" x="38.5" y="526"/><rect fill="#FFC6DB" height="10" style="stroke: #000000; stroke-width: 1.5;" width="15" x="311.5" y="531"/><rect fill="#FFC6DB" height="2" style="stroke: #000000; stroke-width: 1.5;" width="4" x="309.5" y="533"/><rect fill="#FFC6DB" height="2" style="stroke: #000000; stroke-width: 1.5;" width="4" x="309.5" y="537"/><text fill="#000000" font-family="sans-serif" font-size="20" lengthAdjust="spacingAndGlyphs" textLength="253" x="53.5" y="564.5645">SearchPlatform (Product)</text><!--entity ContentUI--><rect fill="#FFC6DB" filter="url(#f11cqy7bb96tq8)" height="53.2813" style="stroke: #000000; stroke-width: 1.5;" width="141" x="412.5" y="300"/><rect fill="#FFC6DB" height="10" style="stroke: #000000; stroke-width: 1.5;" width="15" x="533.5" y="305"/><rect fill="#FFC6DB" height="2" style="stroke: #000000; stroke-width: 1.5;" width="4" x="531.5" y="307"/><rect fill="#FFC6DB" height="2" style="stroke: #000000; stroke-width: 1.5;" width="4" x="531.5" y="311"/><text fill="#000000" font-family="sans-serif" font-size="20" lengthAdjust="spacingAndGlyphs" textLength="101" x="427.5" y="338.5645">ContentUI</text><!--entity ContentDataService--><rect fill="#FFC6DB" filter="url(#f11cqy7bb96tq8)" height="53.2813" style="stroke: #000000; stroke-width: 1.5;" width="240" x="402" y="413"/><rect fill="#FFC6DB" height="10" style="stroke: #000000; stroke-width: 1.5;" width="15" x="622" y="418"/><rect fill="#FFC6DB" height="2" style="stroke: #000000; stroke-width: 1.5;" width="4" x="620" y="420"/><rect fill="#FFC6DB" height="2" style="stroke: #000000; stroke-width: 1.5;" width="4" x="620" y="424"/><text fill="#000000" font-family="sans-serif" font-size="20" lengthAdjust="spacingAndGlyphs" textLength="200" x="417" y="451.5645">ContentDataService</text><!--entity SearchPlatform (Content)--><rect fill="#FFC6DB" filter="url(#f11cqy7bb96tq8)" height="53.2813" style="stroke: #000000; stroke-width: 1.5;" width="296" x="388" y="526"/><rect fill="#FFC6DB" height="10" style="stroke: #000000; stroke-width: 1.5;" width="15" x="664" y="531"/><rect fill="#FFC6DB" height="2" style="stroke: #000000; stroke-width: 1.5;" width="4" x="662" y="533"/><rect fill="#FFC6DB" height="2" style="stroke: #000000; stroke-width: 1.5;" width="4" x="662" y="537"/><text fill="#000000" font-family="sans-serif" font-size="20" lengthAdjust="spacingAndGlyphs" textLength="256" x="403" y="564.5645">SearchPlatform (Content)</text><!--link ContentUI to ContentDataService--><path d="M492.045,353.245 C497.805,369.636 505.291,390.943 511.339,408.156 " fill="none" id="ContentUI-ContentDataService" style="stroke: #000000; stroke-width: 1.0;"/><polygon fill="#000000" points="513.004,412.895,513.7949,403.0779,511.3468,408.1776,506.2471,405.7295,513.004,412.895" style="stroke: #000000; stroke-width: 1.0;"/><!--link ContentDataService to SearchPlatform (Content)--><path d="M525.247,466.245 C527.297,482.496 529.956,503.579 532.117,520.7139 " fill="none" id="ContentDataService-SearchPlatform (Content)" style="stroke: #000000; stroke-width: 1.0;"/><polygon fill="#000000" points="532.771,525.895,535.6131,516.4651,532.1452,520.9343,527.676,517.4664,532.771,525.895" style="stroke: #000000; stroke-width: 1.0;"/><!--link ProductUI to ProductDataService--><path d="M228.955,353.245 C223.195,369.636 215.709,390.943 209.661,408.156 " fill="none" id="ProductUI-ProductDataService" style="stroke: #000000; stroke-width: 1.0;"/><polygon fill="#000000" points="207.996,412.895,214.7529,405.7295,209.6532,408.1776,207.2051,403.0779,207.996,412.895" style="stroke: #000000; stroke-width: 1.0;"/><!--link ProductDataService to SearchPlatform (Product)--><path d="M195.753,466.245 C193.703,482.496 191.044,503.579 188.883,520.7139 " fill="none" id="ProductDataService-SearchPlatform (Product)" style="stroke: #000000; stroke-width: 1.0;"/><polygon fill="#000000" points="188.229,525.895,193.324,517.4664,188.8548,520.9343,185.3869,516.4651,188.229,525.895" style="stroke: #000000; stroke-width: 1.0;"/><!--link SearchUI to Search-API--><path d="M387,112.245 C387,128.496 387,149.579 387,166.714 " fill="none" id="SearchUI-Search-API" style="stroke: #000000; stroke-width: 1.0;"/><polygon fill="#000000" points="387,171.895,391,162.895,387,166.895,383,162.895,387,171.895" style="stroke: #000000; stroke-width: 1.0;"/><!--link Search-API to ContentUI--><path d="M409.844,229.482 C426.146,250.879 447.844,279.357 463.368,299.732 " fill="none" id="Search-API-ContentUI" style="stroke: #000000; stroke-width: 1.0;"/><polygon fill="#000000" points="406.659,225.302,408.9314,234.8851,409.6891,229.2793,415.295,230.037,406.659,225.302" style="stroke: #000000; stroke-width: 1.0;"/><!--link Search-API to ProductUI--><path d="M352.476,228.695 C326.985,250.251 292.624,279.308 268.216,299.948 " fill="none" id="Search-API-ProductUI" style="stroke: #000000; stroke-width: 1.0;"/><polygon fill="#000000" points="356.488,225.302,347.0327,228.0583,352.6698,228.5302,352.1979,234.1674,356.488,225.302" style="stroke: #000000; stroke-width: 1.0;"/><!--
@startuml
skinparam componentStyle uml2

skinparam component {
  BorderColor black
  BackgroundColor #FFC6DB
  ArrowColor black
  FontSize 20
}

package "Search" {
  [SearchUI]
  [Search-API]
}

package "Product" {
  [ProductUI]
  [ProductDataService]
  [SearchPlatform (Product)]
}

package "Content" {
  [ContentUI]
  [ContentDataService]
  [SearchPlatform (Content)]
}

[ContentUI] - -> [ContentDataService]
[ContentDataService] - ->  [SearchPlatform (Content)]

[ProductUI] - ->  [ProductDataService]
[ProductDataService] - -> [SearchPlatform (Product)]

[SearchUI] - -> [Search-API]
[Search-API] <- - [ContentUI]
[Search-API] <- - [ProductUI]
@enduml

PlantUML version 1.2019.07(Mon Jun 24 19:59:20 UTC 2019)
(GPL source distribution)
Java Runtime: Java(TM) SE Runtime Environment
JVM: Java HotSpot(TM) 64-Bit Server VM
Java Version: 1.7.0_25-b15
Operating System: Linux
Default Encoding: UTF-8
Language: en
Country: US
--></g></svg>