<?xml version="1.0" encoding="utf-8"?>
<!-- Generator: Adobe Illustrator 23.0.3, SVG Export Plug-In . SVG Version: 6.00 Build 0)  -->
<svg version="1.1" id="Ebene_1" xmlns="http://www.w3.org/2000/svg" xmlns:xlink="http://www.w3.org/1999/xlink" x="0px" y="0px"
	 viewBox="0 0 1500 1500" style="enable-background:new 0 0 1500 1500;" xml:space="preserve">
<path class="st0" d="M1500,0L0,0v1500l1500,0L1500,0z M38,38l1424,0l0,1424l-1424,0V38z"/>
<g>
	<g>
		<path class="st0" d="M543.6,1261.7c-16.6,0-32.4-6.4-39.7-22.2c-0.2-0.7-0.5-1.2-0.5-1.9s0.5-1.7,1.4-2.1l12.3-6.2
			c2.4-1.2,3.1-0.5,4.5,1.4c5.4,8,13.5,12.8,23.2,12.8c8.8,0,15.6-4.3,15.6-11.6c0-6.6-4.7-9.5-12.8-12.5l-15.1-5.2
			c-14.2-5-26-12.8-26-28.9c0-20.1,17.5-30.3,36.9-30.5c12.3,0,26,3.6,35.7,13.2c1.2,1.2,1.4,2.8,0,4.3l-7.8,10.2
			c-0.7,0.7-1.4,1.2-2.1,1.2c-0.7,0-1.7-0.2-2.8-1.2c-6.2-4.7-15.6-8.8-22.5-8.8c-7.3,0-15.6,3.1-15.6,10.4c0,5.4,4.5,9.2,12.8,12.1
			c18.4,6.4,41.4,11.8,41.4,35C582.4,1249.4,566.8,1261.7,543.6,1261.7z"/>
		<path class="st0" d="M631.2,1205.1l8.8,35.5h0.5l25.5-80c0.7-2.1,1.9-4.5,5.9-4.5h14c2.4,0,3.5,1.4,3.5,3.3c0,0.5,0,0.9-0.2,1.7
			l-44.9,137.4c-0.7,2.4-2.8,5-7.1,5h-12.1c-3.5,0-5-2.8-3.5-6.2l11.8-36.9h-5.2c-3.1,0-4.7-1.4-5.7-4.7l-26.7-95.1
			c-0.2-0.5-0.2-0.9-0.2-1.4c0-1.9,0.9-3.1,3.3-3.1h15.8c3.3,0,4.5,1.7,5.2,3.8C623.9,1175.1,627.4,1190,631.2,1205.1z"/>
		<path class="st0" d="M789.2,1260.5h-16.6c-2.1,0-3.1-0.9-3.1-2.8v-62.7c0-11.8-6.2-20.6-20.3-20.6c-11.8,0-20.6,8.8-20.6,20.3
			v62.9c0,1.9-0.9,2.8-3.1,2.8h-16.3c-1.9,0-3.1-0.9-3.1-2.8v-98.4c0-1.9,0.9-3.1,2.8-3.1h16.3c1.9,0,2.6,0.7,2.6,2.8v5.2
			c0.2,0,0.5,0.2,0.7,0.2c7.1-6.6,18.2-9.5,26.7-9.5c23.9,0,36.7,16.3,36.7,39.7v62.9C792.1,1259.5,791.1,1260.5,789.2,1260.5z"/>
		<path class="st0" d="M839.8,1205.1l8.8,35.5h0.5l25.5-80c0.7-2.1,1.9-4.5,5.9-4.5h14c2.4,0,3.5,1.4,3.5,3.3c0,0.5,0,0.9-0.2,1.7
			l-44.9,137.4c-0.7,2.4-2.8,5-7.1,5h-12.1c-3.5,0-5-2.8-3.5-6.2l11.8-36.9h-5.2c-3.1,0-4.7-1.4-5.7-4.7l-26.7-95.1
			c-0.2-0.5-0.2-0.9-0.2-1.4c0-1.9,0.9-3.1,3.3-3.1h15.8c3.3,0,4.5,1.7,5.2,3.8C832.4,1175.1,836,1190,839.8,1205.1z"/>
		<path class="st0" d="M996.3,1256.2c2.1,2.1,0,4.3-2.6,4.3h-15.6c-2.4,0-4.5,0-6.4-3.3c-6.9-11.4-13-22.9-19.9-34.5h-0.5
			l-19.9,34.5c-1.9,3.1-3.8,3.3-6.4,3.3h-15.4c-3.3,0-4-2.1-2.6-4.3l31.5-50.2l-28.4-45.2c-1.9-1.9-0.2-4.5,2.4-4.5h15.6
			c3.5,0,4.3,0,6.2,3.1c6.1,9.5,11.6,19.9,17.3,29.6h0.7l16.8-29.6c1.7-3.1,2.8-3.1,6.1-3.1h15.6c3.3,0,4,2.4,2.6,4.5l-29.1,45.2
			L996.3,1256.2z"/>
	</g>
	<path class="st0" d="M689.4,481.8c-3.3,38.8,5.5,96.8,52.2,175c15.8,25,34.9,51.5,57.8,79.4c0.1,0.1,0.1,0.1,0.2,0.2
		c0.3,0.4,0.6,0.8,1,1.2c-0.2-0.2-0.4-0.5-0.6-0.7c12.4,15.8,18.4,32.6,18.4,52.3c0,73.9-63,94.9-88.8,94.9c-30.4,0-63.5-16-74.6-35
		l-152.1,92.1c43.2,71.4,133.3,119.5,226.7,119.5c112,0,265.6-86.4,265.6-271.5C995.2,617.1,823.2,570.1,689.4,481.8z"/>
	<path class="st0" d="M700.5,677c4.7,2.4,9.2,4.8,13.6,7.2c1.4,0.8,2.7,1.5,4.1,2.3c2.9,1.6,5.8,3.2,8.5,4.8c1.5,0.9,3,1.8,4.5,2.7
		c1.3,0.8,2.7,1.6,4,2.4C678.5,613,652.8,536,661,473.2c1.2-9.5,3.2-18.8,6-27.7c14.3-44.9,48.4-76.8,96.2-90l-63-159.1
		c-113,40.8-173.2,132-173.2,246.6C527,563.8,615.5,633.4,700.5,677z"/>
</g>
</svg>
