<?xml version="1.0" encoding="UTF-8" standalone="no"?><svg xmlns="http://www.w3.org/2000/svg" xmlns:xlink="http://www.w3.org/1999/xlink" contentScriptType="application/ecmascript" contentStyleType="text/css" height="557px" preserveAspectRatio="none" style="width:1378px;height:557px;" version="1.1" viewBox="0 0 1378 557" width="1378px" zoomAndPan="magnify"><defs><filter height="300%" id="fwt116yeihv10" width="300%" x="-1" y="-1"><feGaussianBlur result="blurOut" stdDeviation="2.0"/><feColorMatrix in="blurOut" result="blurOut2" type="matrix" values="0 0 0 0 0 0 0 0 0 0 0 0 0 0 0 0 0 0 .4 0"/><feOffset dx="4.0" dy="4.0" in="blurOut2" result="blurOut3"/><feBlend in="SourceGraphic" in2="blurOut3" mode="normal"/></filter></defs><g><line style="stroke: #000000; stroke-width: 1.0; stroke-dasharray: 5.0,5.0;" x1="33" x2="33" y1="93.2813" y2="462.8125"/><line style="stroke: #000000; stroke-width: 1.0; stroke-dasharray: 5.0,5.0;" x1="205.5" x2="205.5" y1="93.2813" y2="462.8125"/><line style="stroke: #000000; stroke-width: 1.0; stroke-dasharray: 5.0,5.0;" x1="381.5" x2="381.5" y1="93.2813" y2="462.8125"/><line style="stroke: #000000; stroke-width: 1.0; stroke-dasharray: 5.0,5.0;" x1="625.5" x2="625.5" y1="93.2813" y2="462.8125"/><line style="stroke: #000000; stroke-width: 1.0; stroke-dasharray: 5.0,5.0;" x1="929.5" x2="929.5" y1="93.2813" y2="462.8125"/><line style="stroke: #000000; stroke-width: 1.0; stroke-dasharray: 5.0,5.0;" x1="1240.5" x2="1240.5" y1="93.2813" y2="462.8125"/><text fill="#000000" font-family="sans-serif" font-size="20" lengthAdjust="spacingAndGlyphs" textLength="45" x="8" y="88.5645">User</text><ellipse cx="33.5" cy="13" fill="#FFC6DB" filter="url(#fwt116yeihv10)" rx="8" ry="8" style="stroke: #000000; stroke-width: 2.0;"/><path d="M33.5,21 L33.5,48 M20.5,29 L46.5,29 M33.5,48 L20.5,63 M33.5,48 L46.5,63 " fill="none" filter="url(#fwt116yeihv10)" style="stroke: #000000; stroke-width: 2.0;"/><text fill="#000000" font-family="sans-serif" font-size="20" lengthAdjust="spacingAndGlyphs" textLength="45" x="8" y="480.377">User</text><ellipse cx="33.5" cy="495.0938" fill="#FFC6DB" filter="url(#fwt116yeihv10)" rx="8" ry="8" style="stroke: #000000; stroke-width: 2.0;"/><path d="M33.5,503.0938 L33.5,530.0938 M20.5,511.0938 L46.5,511.0938 M33.5,530.0938 L20.5,545.0938 M33.5,530.0938 L46.5,545.0938 " fill="none" filter="url(#fwt116yeihv10)" style="stroke: #000000; stroke-width: 2.0;"/><rect fill="#FFC6DB" filter="url(#fwt116yeihv10)" height="41.9375" style="stroke: #000000; stroke-width: 1.5;" width="110" x="148.5" y="46.3438"/><text fill="#000000" font-family="sans-serif" font-size="24" lengthAdjust="spacingAndGlyphs" textLength="96" x="155.5" y="75.6211">Browser</text><rect fill="#FFC6DB" filter="url(#fwt116yeihv10)" height="41.9375" style="stroke: #000000; stroke-width: 1.5;" width="110" x="148.5" y="461.8125"/><text fill="#000000" font-family="sans-serif" font-size="24" lengthAdjust="spacingAndGlyphs" textLength="96" x="155.5" y="491.0898">Browser</text><rect fill="#FFC6DB" filter="url(#fwt116yeihv10)" height="41.9375" style="stroke: #000000; stroke-width: 1.5;" width="134" x="312.5" y="46.3438"/><text fill="#000000" font-family="sans-serif" font-size="24" lengthAdjust="spacingAndGlyphs" textLength="120" x="319.5" y="75.6211">Composer</text><rect fill="#FFC6DB" filter="url(#fwt116yeihv10)" height="41.9375" style="stroke: #000000; stroke-width: 1.5;" width="134" x="312.5" y="461.8125"/><text fill="#000000" font-family="sans-serif" font-size="24" lengthAdjust="spacingAndGlyphs" textLength="120" x="319.5" y="491.0898">Composer</text><rect fill="#FFC6DB" filter="url(#fwt116yeihv10)" height="41.9375" style="stroke: #000000; stroke-width: 1.5;" width="246" x="500.5" y="46.3438"/><text fill="#000000" font-family="sans-serif" font-size="24" lengthAdjust="spacingAndGlyphs" textLength="232" x="507.5" y="75.6211">SearchAssetService</text><rect fill="#FFC6DB" filter="url(#fwt116yeihv10)" height="41.9375" style="stroke: #000000; stroke-width: 1.5;" width="246" x="500.5" y="461.8125"/><text fill="#000000" font-family="sans-serif" font-size="24" lengthAdjust="spacingAndGlyphs" textLength="232" x="507.5" y="491.0898">SearchAssetService</text><rect fill="#FFC6DB" filter="url(#fwt116yeihv10)" height="41.9375" style="stroke: #000000; stroke-width: 1.5;" width="255" x="800.5" y="46.3438"/><text fill="#000000" font-family="sans-serif" font-size="24" lengthAdjust="spacingAndGlyphs" textLength="241" x="807.5" y="75.6211">ProductAssetService</text><rect fill="#FFC6DB" filter="url(#fwt116yeihv10)" height="41.9375" style="stroke: #000000; stroke-width: 1.5;" width="255" x="800.5" y="461.8125"/><text fill="#000000" font-family="sans-serif" font-size="24" lengthAdjust="spacingAndGlyphs" textLength="241" x="807.5" y="491.0898">ProductAssetService</text><rect fill="#FFC6DB" filter="url(#fwt116yeihv10)" height="41.9375" style="stroke: #000000; stroke-width: 1.5;" width="258" x="1109.5" y="46.3438"/><text fill="#000000" font-family="sans-serif" font-size="24" lengthAdjust="spacingAndGlyphs" textLength="244" x="1116.5" y="75.6211">ContentAssetService</text><rect fill="#FFC6DB" filter="url(#fwt116yeihv10)" height="41.9375" style="stroke: #000000; stroke-width: 1.5;" width="258" x="1109.5" y="461.8125"/><text fill="#000000" font-family="sans-serif" font-size="24" lengthAdjust="spacingAndGlyphs" textLength="244" x="1116.5" y="491.0898">ContentAssetService</text><polygon fill="#000000" points="193.5,128.5625,203.5,132.5625,193.5,136.5625,197.5,132.5625" style="stroke: #000000; stroke-width: 1.0;"/><line style="stroke: #000000; stroke-width: 1.0;" x1="33.5" x2="199.5" y1="132.5625" y2="132.5625"/><text fill="#000000" font-family="sans-serif" font-size="20" lengthAdjust="spacingAndGlyphs" textLength="148" x="40.5" y="125.8457">Search (query)</text><polygon fill="#000000" points="369.5,165.8438,379.5,169.8438,369.5,173.8438,373.5,169.8438" style="stroke: #000000; stroke-width: 1.0;"/><line style="stroke: #000000; stroke-width: 1.0;" x1="205.5" x2="375.5" y1="169.8438" y2="169.8438"/><text fill="#000000" font-family="sans-serif" font-size="20" lengthAdjust="spacingAndGlyphs" textLength="41" x="212.5" y="163.127">GET</text><polygon fill="#000000" points="216.5,203.125,206.5,207.125,216.5,211.125,212.5,207.125" style="stroke: #000000; stroke-width: 1.0;"/><line style="stroke: #000000; stroke-width: 1.0; stroke-dasharray: 2.0,2.0;" x1="210.5" x2="380.5" y1="207.125" y2="207.125"/><text fill="#000000" font-family="sans-serif" font-size="20" lengthAdjust="spacingAndGlyphs" textLength="55" x="222.5" y="200.4082">HTML</text><polygon fill="#000000" points="613.5,240.4063,623.5,244.4063,613.5,248.4063,617.5,244.4063" style="stroke: #000000; stroke-width: 1.0;"/><line style="stroke: #000000; stroke-width: 1.0;" x1="205.5" x2="619.5" y1="244.4063" y2="244.4063"/><text fill="#000000" font-family="sans-serif" font-size="20" lengthAdjust="spacingAndGlyphs" textLength="138" x="212.5" y="237.6895">GET search JS</text><polygon fill="#000000" points="216.5,277.6875,206.5,281.6875,216.5,285.6875,212.5,281.6875" style="stroke: #000000; stroke-width: 1.0;"/><line style="stroke: #000000; stroke-width: 1.0; stroke-dasharray: 2.0,2.0;" x1="210.5" x2="624.5" y1="281.6875" y2="281.6875"/><text fill="#000000" font-family="sans-serif" font-size="20" lengthAdjust="spacingAndGlyphs" textLength="19" x="222.5" y="274.9707">JS</text><polygon fill="#000000" points="918,314.9688,928,318.9688,918,322.9688,922,318.9688" style="stroke: #000000; stroke-width: 1.0;"/><line style="stroke: #000000; stroke-width: 1.0;" x1="205.5" x2="924" y1="318.9688" y2="318.9688"/><text fill="#000000" font-family="sans-serif" font-size="20" lengthAdjust="spacingAndGlyphs" textLength="150" x="212.5" y="312.252">GET product JS</text><polygon fill="#000000" points="216.5,352.25,206.5,356.25,216.5,360.25,212.5,356.25" style="stroke: #000000; stroke-width: 1.0;"/><line style="stroke: #000000; stroke-width: 1.0; stroke-dasharray: 2.0,2.0;" x1="210.5" x2="929" y1="356.25" y2="356.25"/><text fill="#000000" font-family="sans-serif" font-size="20" lengthAdjust="spacingAndGlyphs" textLength="19" x="222.5" y="349.5332">JS</text><polygon fill="#000000" points="1228.5,389.5313,1238.5,393.5313,1228.5,397.5313,1232.5,393.5313" style="stroke: #000000; stroke-width: 1.0;"/><line style="stroke: #000000; stroke-width: 1.0;" x1="205.5" x2="1234.5" y1="393.5313" y2="393.5313"/><text fill="#000000" font-family="sans-serif" font-size="20" lengthAdjust="spacingAndGlyphs" textLength="149" x="212.5" y="386.8145">GET content JS</text><polygon fill="#000000" points="216.5,426.8125,206.5,430.8125,216.5,434.8125,212.5,430.8125" style="stroke: #000000; stroke-width: 1.0;"/><line style="stroke: #000000; stroke-width: 1.0; stroke-dasharray: 2.0,2.0;" x1="210.5" x2="1239.5" y1="430.8125" y2="430.8125"/><text fill="#000000" font-family="sans-serif" font-size="20" lengthAdjust="spacingAndGlyphs" textLength="19" x="222.5" y="424.0957">JS</text><polygon fill="#000000" points="44.5,440.8125,34.5,444.8125,44.5,448.8125,40.5,444.8125" style="stroke: #000000; stroke-width: 1.0;"/><line style="stroke: #000000; stroke-width: 1.0; stroke-dasharray: 2.0,2.0;" x1="38.5" x2="204.5" y1="444.8125" y2="444.8125"/><!--
@startuml
skinparam BoxPadding 10
skinparam ParticipantPadding 20

skinparam sequence {
	ArrowColor black
	ActorBorderColor black
	LifeLineBorderColor black
	LifeLineBackgroundColor black
	ArrowFontSize 20

	ParticipantBorderColor black
    ParticipantBackgroundColor #FFC6DB
    ParticipantFontSize 24

	ActorBackgroundColor #FFC6DB
	ActorFontSize 20
}

actor User
User -> Browser : Search (query)
Browser -> Composer: GET
Browser <- - Composer: HTML
Browser -> SearchAssetService: GET search JS
Browser <- - SearchAssetService: JS
Browser -> ProductAssetService: GET product JS
Browser <- - ProductAssetService: JS
Browser -> ContentAssetService: GET content JS
Browser <- - ContentAssetService: JS
User <- - Browser
@enduml

PlantUML version 1.2019.07beta1(Unknown compile time)
(GPL source distribution)
Java Runtime: Java(TM) SE Runtime Environment
JVM: Java HotSpot(TM) 64-Bit Server VM
Java Version: 1.7.0_25-b15
Operating System: Linux
Default Encoding: UTF-8
Language: en
Country: US
--></g></svg>